<?xml version="1.0" encoding="UTF-8" standalone="no"?>
<!-- Uploaded to: SVG Repo, www.svgrepo.com, Generator: SVG Repo Mixer Tools -->

<svg
   fill="#000000"
   height="45.82457"
   width="330.67126"
   version="1.1"
   id="Layer_1"
   viewBox="0 0 211.8061 29.352183"
   xml:space="preserve"
   sodipodi:docname="mk-hr.svg"
   inkscape:version="1.3.2 (091e20ef0f, 2023-11-25)"
   inkscape:export-filename="computer-mouse-mouse-svgrepo-com.png"
   inkscape:export-xdpi="96"
   inkscape:export-ydpi="96"
   xmlns:inkscape="http://www.inkscape.org/namespaces/inkscape"
   xmlns:sodipodi="http://sodipodi.sourceforge.net/DTD/sodipodi-0.dtd"
   xmlns="http://www.w3.org/2000/svg"
   xmlns:svg="http://www.w3.org/2000/svg"><sodipodi:namedview
   id="namedview6"
   pagecolor="#ffffff"
   bordercolor="#000000"
   borderopacity="0.25"
   inkscape:showpageshadow="2"
   inkscape:pageopacity="0.0"
   inkscape:pagecheckerboard="0"
   inkscape:deskcolor="#d1d1d1"
   inkscape:zoom="2.025"
   inkscape:cx="171.85185"
   inkscape:cy="13.82716"
   inkscape:window-width="1920"
   inkscape:window-height="1014"
   inkscape:window-x="0"
   inkscape:window-y="0"
   inkscape:window-maximized="1"
   inkscape:current-layer="Layer_1" /><defs
   id="defs6"><filter
     style="color-interpolation-filters:sRGB;"
     inkscape:label="Drop Shadow"
     id="filter23"
     x="-0.037634464"
     y="-0.31302941"
     width="1.0777934"
     height="1.6260588"><feFlood
       result="flood"
       in="SourceGraphic"
       flood-opacity="1.000000"
       flood-color="rgb(255,255,255)"
       id="feFlood22" /><feGaussianBlur
       result="blur"
       in="SourceGraphic"
       stdDeviation="3.000000"
       id="feGaussianBlur22" /><feOffset
       result="offset"
       in="blur"
       dx="0.000000"
       dy="0.000000"
       id="feOffset22" /><feComposite
       result="comp1"
       operator="in"
       in="flood"
       in2="offset"
       id="feComposite22" /><feComposite
       result="comp2"
       operator="over"
       in="SourceGraphic"
       in2="comp1"
       id="feComposite23" /></filter></defs>

<g
   id="g14"
   style="filter:url(#filter23)"
   inkscape:export-filename="./mk-hr.png"
   inkscape:export-xdpi="96"
   inkscape:export-ydpi="96"><path
     d="m 201.66009,8.0901277 -0.008,0.008 m 3.30185,3.2853803 -0.008,0.008 m -6.57901,-0.008 -0.008,0.008 m -3.28538,3.28538 -0.008,0.008 m 0.008,6.579 -0.008,0.008 m -3.28539,-3.30185 -0.008,0.008 m -9.87249,-3.30196 c 3.62143,-4.20294 7.68105,-7.6917403 11.52767,-11.5276703 l 3.29362,3.29362 m 4.94043,8.2340503 -3.29362,3.29362 m 10.53958,-3.95234 -11.1983,11.19831 c -0.9223,0.92229 -1.38349,1.38348 -1.91525,1.55623 -0.46769,0.152 -0.97161,0.152 -1.43931,0 -0.53175,-0.17275 -0.99294,-0.63394 -1.91524,-1.55623 l -4.61106,-4.61107 c -0.9223,-0.9223 -1.38349,-1.38349 -1.55624,-1.91524 -0.15201,-0.4677 -0.15198,-0.97159 -1e-5,-1.43932 0.17276,-0.53175 0.63395,-0.99294 1.55625,-1.91523 l 11.1983,-11.1983103 c 0.92231,-0.9223 1.38345,-1.38345 1.91522,-1.55623 0.46775,-0.15199 0.97161,-0.15199 1.43934,-10e-6 0.53175,0.17276 0.99294,0.63395 1.91523,1.55624 l 4.61107,4.61107 c 0.9223,0.92229 1.38349,1.3834803 1.55624,1.9152303 0.15197,0.46773 0.15201,0.97162 -2e-5,1.43934 -0.17277,0.53177 -0.63392,0.99292 -1.55622,1.91522 z"
     stroke="#000000"
     stroke-width="2.32894"
     stroke-linecap="round"
     stroke-linejoin="round"
     id="path1-3"
     style="fill:none;stroke:#000000;stroke-width:2.45709;stroke-dasharray:none"
     sodipodi:nodetypes="cccccccccccccccccssccsscsssssssscs" /><g
     id="g9"
     transform="translate(-66.175271,-155.89377)"><path
       d="m 76.647437,170.56991 c 0,-1.3031 -1.023861,-2.32702 -2.327018,-2.32702 -1.303157,0 -2.327019,1.02386 -2.327019,2.32702 0,1.3031 1.023862,2.32702 2.327019,2.32702 1.303157,0 2.327018,-1.02386 2.327018,-2.32702 z m -3.723164,0 c 0,-0.7912 0.605002,-1.3962 1.396201,-1.3962 0.791198,0 1.3962,0.605 1.3962,1.3962 0,0.7912 -0.605002,1.3962 -1.3962,1.3962 -0.791199,0 -1.396201,-0.605 -1.396201,-1.3962 z"
       id="path1"
       style="stroke:#000000;stroke-width:1.39736;stroke-dasharray:none;stroke-opacity:1" /><path
       id="path2"
       d="m 91.074849,162.79991 c -1.256578,-0.32577 -2.745864,-0.13961 -4.281681,0.0465 -0.837718,0.0931 -1.67541,0.18609 -2.466608,0.23267 -0.360665,0.0116 -0.718478,0.0116 -1.072654,-6.9e-4 -1.062419,-0.0371 -2.092088,-0.18541 -3.069426,-0.46465 -5.5e-5,0 -1.64e-4,-1e-5 -2.18e-4,-7e-5 -0.0306,-0.007 -0.06193,-0.0151 -0.09307,-0.0229 -0.394425,-0.10434 -0.828675,-0.31656 -1.303001,-0.48901 -0.749365,-0.32113 -1.526146,-0.64151 -2.330215,-0.77388 -0.184887,-0.0327 -0.370047,-0.055 -0.555261,-0.0639 -0.01882,0 -0.03765,0.001 -0.05636,0.003 -0.04325,-10e-4 -0.08642,-0.003 -0.129775,-0.003 -5.44517,0 -8.842629,3.30441 -8.842629,9.30588 0,6.00147 3.397459,9.30588 8.842629,9.30588 0.04336,0 0.08653,-0.002 0.129775,-0.003 0.01871,0.002 0.03754,0.003 0.05636,0.003 0.185214,-0.009 0.370374,-0.0311 0.555261,-0.0639 0.804069,-0.13237 1.58085,-0.45275 2.330215,-0.77387 0.474326,-0.17245 0.908576,-0.38468 1.303001,-0.48901 0.03114,-0.008 0.06247,-0.0161 0.09307,-0.0229 5.4e-5,-4e-5 1.63e-4,-5e-5 2.18e-4,-5e-5 0.977338,-0.27924 2.007007,-0.42757 3.069426,-0.46465 0.354176,-0.0123 0.711989,-0.0123 1.072654,-6.9e-4 0.791198,0.0466 1.62889,0.13957 2.466608,0.23267 1.535817,0.18614 3.025103,0.3723 4.281681,0.0465 3.418841,-0.67482 3.659865,-4.74836 3.638195,-7.78664 -0.02167,-3.03827 -0.207744,-7.00814 -3.638195,-7.75339 z m 2.781765,7.30675 h -2.856887 c -0.184942,-0.55101 -0.694498,-0.9308 -1.321151,-0.9308 h -3.723212 c -0.626708,0 -1.136209,0.37974 -1.321151,0.9308 h -2.402062 c -0.26854,0 -0.449221,0.17315 -0.462809,0.4347 -6e-4,0.009 -0.0026,0.0171 -0.0026,0.0264 0,7.3e-4 2.18e-4,0.001 2.18e-4,0.002 -3e-6,7.6e-4 -2.18e-4,0.001 -2.18e-4,0.002 0,0.009 0.002,0.0174 0.0026,0.0263 0.01353,0.26163 0.194222,0.43484 0.462809,0.43484 h 2.402062 c 0.184942,0.55106 0.694443,0.9308 1.321151,0.9308 h 3.723212 c 0.626653,0 1.136209,-0.3798 1.321151,-0.9308 h 2.856887 c -0.158759,2.25131 -0.217959,5.83172 -2.967966,6.42248 h -0.04653 c -1.070382,0.27924 -2.466584,0.093 -3.955879,-0.0931 -0.815848,-0.0906 -1.675762,-0.225 -2.4939,-0.23199 -3.989034,-1.09361 -7.808716,-1.88827 -9.048004,-0.41948 -0.232718,0.27924 -0.372335,0.65156 -0.372335,1.11694 0,0.33329 0.07938,0.70621 0.224342,1.10554 -4.621413,-0.19738 -7.391499,-3.04514 -7.391499,-8.36362 0,-5.31847 2.770086,-8.16624 7.391499,-8.36361 -0.144963,0.39933 -0.224342,0.77225 -0.224342,1.10554 0,0.46538 0.139617,0.8377 0.372335,1.11694 1.239288,1.46879 5.05897,0.67413 9.048004,-0.41949 0.818138,-0.007 1.678052,-0.14134 2.4939,-0.23198 1.489295,-0.18614 2.885497,-0.37237 3.955879,-0.0931 h 0.04653 c 2.703567,0.5843 2.866867,4.17743 2.967966,6.42248 z m -3.740406,0.62404 h 0.002 c -0.05888,0.18568 -0.219465,0.3024 -0.439543,0.3024 h -3.723212 c -0.220078,0 -0.380615,-0.11672 -0.439474,-0.3024 h 0.002 c -0.03523,-0.11341 -0.03468,-0.20993 0,-0.32157 h -0.002 c 0.05886,-0.18568 0.219396,-0.3024 0.439474,-0.3024 h 3.723212 c 0.220078,0 0.380665,0.11672 0.439543,0.3024 h -0.002 c 0.03469,0.1117 0.03521,0.20822 0,0.32157 z m -8.62859,-6.86046 c -2.187394,0.46538 -4.700587,0.83772 -5.398686,0 -0.32576,-0.37234 -0.139583,-1.02382 0.09314,-1.62887 0.744619,0.0932 1.48932,0.41891 2.233941,0.74467 0.558479,0.23272 1.023847,0.41885 1.535804,0.55847 0.511957,0.13962 1.023848,0.23269 1.535805,0.32573 z m 0,13.39935 c -0.511957,0.093 -1.023848,0.18611 -1.535805,0.32573 -0.511957,0.13962 -0.977325,0.32575 -1.535804,0.55847 -0.744621,0.32576 -1.489322,0.65152 -2.233941,0.74467 -0.232719,-0.60506 -0.418896,-1.25653 -0.09314,-1.62887 0.698099,-0.83772 3.211292,-0.46538 5.398686,0 z"
       sodipodi:nodetypes="cccccccccccscscccccccccccccccsscscscscscsscccccccscccsccccccccssccccsscccccccsccscccc"
       style="stroke:#000000;stroke-width:1.39736;stroke-dasharray:none;stroke-opacity:1" /></g><g
     id="g10"
     transform="translate(-66.175271,-155.89382)"><path
       style="fill:none;stroke:#000000;stroke-width:2.44539;stroke-linecap:round;stroke-dasharray:none;stroke-opacity:1"
       d="m 171.17635,170.56993 c 0.88563,-0.9716 1.77126,-1.94315 2.65689,-2.89206 0.88562,-0.94898 1.77126,-1.87503 2.65688,-2.75689 0.88569,-0.88186 1.77127,-1.71919 2.65684,-2.49274 0.88573,-0.77357 1.77131,-1.48292 2.65689,-2.11203 0.88573,-0.6291 1.77131,-1.17736 2.65689,-1.63256 0.88573,-0.45521 1.77131,-0.81676 2.65688,-1.07683 0.88573,-0.26001 1.77131,-0.41793 2.65689,-0.47063 0.88573,-0.0527 1.77131,3.8e-4 2.65689,0.15748 0.88573,0.15707 1.7713,0.41876 2.65689,0.77831 0.88573,0.35953 1.7713,0.81748 2.65688,1.36265 0.88573,0.54518 1.7713,1.17803 2.65688,1.88336 0.88574,0.70533 1.77131,1.48348 2.65689,2.31594 0.88573,0.83251 1.77131,1.71957 2.65689,2.64032 0.88573,0.92069 1.77131,1.8752 2.65689,2.8411 0.88573,0.9659 1.7713,1.94326 2.65688,2.90917 0.88573,0.96596 1.77131,1.92035 2.65688,2.84116 0.88573,0.92077 1.77131,1.80767 2.65689,2.64026 0.88573,0.83259 1.77131,1.61049 2.65689,2.31596 0.88574,0.70546 1.77131,1.338 2.65689,1.88334 0.88573,0.54535 1.7713,1.00294 2.65704,1.36268 0.88558,0.35973 1.77115,0.62099 2.65689,0.77828 0.88557,0.1573 1.77115,0.21 2.65688,0.1575 0.88558,-0.0525 1.77116,-0.21081 2.65689,-0.47065 0.88557,-0.25983 1.77115,-0.62177 2.65688,-1.07679 0.88558,-0.45502 1.77116,-1.00365 2.65689,-1.63258 0.88558,-0.62893 1.77116,-1.3386 2.65689,-2.11203 0.88557,-0.77344 1.77115,-1.61096 2.65688,-2.49274 0.88558,-0.88177 1.77116,-1.80799 2.65689,-2.75685 0.88558,-0.94892 1.73189,-2.0388 2.61763,-3.01041"
       title="t sin(t)"
       id="path6"
       sodipodi:nodetypes="cccccccscccccccccccccssscccccc" /><path
       style="fill:none;stroke:#000000;stroke-width:2.44539;stroke-linecap:round;stroke-dasharray:none;stroke-opacity:1"
       d="m 94.113905,170.56993 c 0.88563,-0.9716 1.77126,-1.94315 2.65689,-2.89206 0.88562,-0.94898 1.77126,-1.87503 2.656884,-2.75689 0.885691,-0.88186 1.771271,-1.71919 2.656841,-2.49274 0.88573,-0.77357 1.77131,-1.48292 2.65689,-2.11203 0.88573,-0.6291 1.77131,-1.17736 2.65689,-1.63256 0.88573,-0.45521 1.77131,-0.81676 2.65688,-1.07683 0.88573,-0.26001 1.77131,-0.41793 2.65689,-0.47063 0.88573,-0.0527 1.77131,3.8e-4 2.65689,0.15748 0.88573,0.15707 1.7713,0.41876 2.65689,0.77831 0.88573,0.35953 1.7713,0.81748 2.65688,1.36265 0.88573,0.54518 1.7713,1.17803 2.65688,1.88336 0.88574,0.70533 1.77131,1.48348 2.65689,2.31594 0.88573,0.83251 1.77131,1.71957 2.65689,2.64032 0.88573,0.92069 1.77131,1.8752 2.65689,2.8411 0.88573,0.9659 1.7713,1.94326 2.65688,2.90917 0.88573,0.96596 1.77131,1.92035 2.65688,2.84116 0.88573,0.92077 1.77131,1.80767 2.65689,2.64026 0.88573,0.83259 1.77131,1.61049 2.65689,2.31596 0.88573,0.70546 1.7713,1.338 2.65688,1.88334 0.88573,0.54535 1.7713,1.00294 2.65704,1.36268 0.88558,0.35973 1.77115,0.62099 2.65689,0.77828 0.88557,0.1573 1.77115,0.21 2.65688,0.1575 0.88558,-0.0525 1.77116,-0.21081 2.65689,-0.47065 0.88557,-0.25983 1.77115,-0.62177 2.65688,-1.07679 0.88558,-0.45502 1.77116,-1.00365 2.65689,-1.63258 0.88558,-0.62893 1.77116,-1.3386 2.65689,-2.11203 0.88557,-0.77344 1.77115,-1.61096 2.65688,-2.49274 0.88558,-0.88177 1.77116,-1.80799 2.65689,-2.75685 0.88558,-0.94892 1.77115,-1.92052 2.65689,-2.89213"
       title="t sin(t)"
       id="path9" /></g></g></svg>
