<?xml version="1.0" encoding="UTF-8" standalone="no"?>
<!-- Created with Inkscape (http://www.inkscape.org/) -->

<svg
   width="7.4415298mm"
   height="6.9112382mm"
   viewBox="0 0 7.4415298 6.9112382"
   version="1.1"
   id="svg1"
   inkscape:version="1.3 (0e150ed6c4, 2023-07-21)"
   sodipodi:docname="dogpaw.svg"
   xmlns:inkscape="http://www.inkscape.org/namespaces/inkscape"
   xmlns:sodipodi="http://sodipodi.sourceforge.net/DTD/sodipodi-0.dtd"
   xmlns="http://www.w3.org/2000/svg"
   xmlns:svg="http://www.w3.org/2000/svg">
  <sodipodi:namedview
     id="namedview1"
     pagecolor="#ffffff"
     bordercolor="#000000"
     borderopacity="0.25"
     inkscape:showpageshadow="2"
     inkscape:pageopacity="0.0"
     inkscape:pagecheckerboard="0"
     inkscape:deskcolor="#d1d1d1"
     inkscape:document-units="mm"
     inkscape:zoom="6.0435466"
     inkscape:cx="22.337877"
     inkscape:cy="28.46011"
     inkscape:window-width="1920"
     inkscape:window-height="1008"
     inkscape:window-x="0"
     inkscape:window-y="0"
     inkscape:window-maximized="1"
     inkscape:current-layer="layer1" />
  <defs
     id="defs1" />
  <g
     inkscape:label="Layer 1"
     inkscape:groupmode="layer"
     id="layer1"
     transform="translate(-16.649398,-100.92447)">
    <path
       style="fill:#050101;stroke:none;stroke-width:0.00106169"
       d="m 23.848138,102.81869 c -0.22779,-0.62082 -1.00869,-0.86496 -1.594419,-0.75454 -0.5857,0.11047 -1.04583,0.60146 -1.21264,1.15362 -0.12513,0.4103 0.203,0.81319 0.59745,0.89551 0.74923,0.17802 1.669229,-0.0291 2.116579,-0.69886 0.11172,-0.17426 0.16598,-0.3956 0.0927,-0.59543 z m 0.21523,2.44948 c -0.22687,-0.58307 -0.89519,-0.81954 -1.475179,-0.83811 -0.47028,-0.02 -1.07303,0.0408 -1.32866,0.49716 -0.21034,0.45826 0.14987,0.9291 0.50026,1.19854 0.37435,0.31425 0.89256,0.44313 1.364359,0.29724 0.501,-0.11786 1.10344,-0.57269 0.93922,-1.15483 z m -2.617939,-3.70854 c -0.19925,-0.44107 -0.73822,-0.55843 -1.17386,-0.62092 -0.48192,-0.0415 -1.11172,-0.0206 -1.37429,0.45909 -0.28296,0.43791 -0.0255,1.01917 0.40951,1.24148 0.77014,0.48076 1.93348,0.0294 2.15179,-0.85683 0.0149,-0.0737 0.0109,-0.15144 -0.0132,-0.22284 z m 0.1461,5.22341 c -0.21182,-0.59708 -0.95437,-0.98985 -1.55467,-0.72348 -0.46136,0.18126 -0.96976,0.48409 -1.1072,0.99331 -0.0634,0.43455 0.40244,0.68712 0.76816,0.74515 0.60962,0.10005 1.3357,0.0182 1.77648,-0.45676 0.13332,-0.15095 0.18137,-0.36649 0.11724,-0.55817 z m -4.91879,-0.86938 c 0.055,0.47786 0.1454,1.06556 0.62107,1.30529 0.51155,0.1982 1.17665,-0.0592 1.35348,-0.59912 0.15869,-0.40057 0.25961,-0.87611 0.6644,-1.10931 0.51171,-0.29497 0.61166,-0.99164 0.42833,-1.50887 -0.1968,-0.46854 -0.74822,-0.66907 -0.91266,-1.1619 -0.16694,-0.41092 -0.36746,-0.92713 -0.86531,-1.00816 -0.40644,-0.11059 -0.86325,0.0922 -1.03051,0.48414 -0.34978,0.77943 -0.27099,1.65656 -0.28103,2.48887 0.004,0.36975 0.0134,0.73941 0.0222,1.10906 z"
       id="path6821"
       sodipodi:nodetypes="szsccscccsccccccccccccccccscccsccc" />
  </g>
</svg>
