<?xml version="1.0" encoding="UTF-8" standalone="no"?>
<!-- Created with Inkscape (http://www.inkscape.org/) -->

<svg
   width="8.5in"
   height="11in"
   viewBox="0 0 215.9 279.4"
   version="1.1"
   id="svg1"
   inkscape:version="1.3.2 (091e20ef0f, 2023-11-25, custom)"
   sodipodi:docname="emboss-cut.svg"
   xmlns:inkscape="http://www.inkscape.org/namespaces/inkscape"
   xmlns:sodipodi="http://sodipodi.sourceforge.net/DTD/sodipodi-0.dtd"
   xmlns="http://www.w3.org/2000/svg"
   xmlns:svg="http://www.w3.org/2000/svg">
  <sodipodi:namedview
     id="namedview1"
     pagecolor="#ffffff"
     bordercolor="#000000"
     borderopacity="0.25"
     inkscape:showpageshadow="2"
     inkscape:pageopacity="0.0"
     inkscape:pagecheckerboard="0"
     inkscape:deskcolor="#d1d1d1"
     inkscape:document-units="mm"
     inkscape:zoom="0.51780096"
     inkscape:cx="173.81196"
     inkscape:cy="619.92933"
     inkscape:window-width="1920"
     inkscape:window-height="1008"
     inkscape:window-x="0"
     inkscape:window-y="0"
     inkscape:window-maximized="1"
     inkscape:current-layer="layer1" />
  <defs
     id="defs1">
    <filter
       inkscape:menu-tooltip="In and out glow with a possible offset and colorizable flood"
       inkscape:menu="Shadows and Glows"
       inkscape:label="Cutout Glow"
       style="color-interpolation-filters:sRGB"
       id="filter3"
       x="-0.11218411"
       y="-0.49546936"
       width="1.2711116"
       height="2.1973844">
      <feOffset
         dy="3"
         dx="3"
         id="feOffset3" />
      <feGaussianBlur
         stdDeviation="3"
         result="blur"
         id="feGaussianBlur3" />
      <feFlood
         flood-color="rgb(0,0,0)"
         flood-opacity="1"
         result="flood"
         id="feFlood3" />
      <feComposite
         in="flood"
         in2="SourceGraphic"
         operator="in"
         result="composite"
         id="feComposite3" />
      <feBlend
         in="blur"
         in2="composite"
         mode="normal"
         id="feBlend3" />
    </filter>
    <filter
       inkscape:menu-tooltip="In and out glow with a possible offset and colorizable flood"
       inkscape:menu="Shadows and Glows"
       inkscape:label="Cutout Glow"
       style="color-interpolation-filters:sRGB"
       id="filter2"
       x="-0.3111726"
       y="-0.74115622"
       width="1.7520005"
       height="2.7911277">
      <feOffset
         dy="3"
         dx="3"
         id="feOffset2" />
      <feGaussianBlur
         stdDeviation="3"
         result="blur"
         id="feGaussianBlur2" />
      <feFlood
         flood-color="rgb(0,0,0)"
         flood-opacity="1"
         result="flood"
         id="feFlood2" />
      <feComposite
         in="flood"
         in2="SourceGraphic"
         operator="in"
         result="composite"
         id="feComposite2" />
      <feBlend
         in="blur"
         in2="composite"
         mode="normal"
         id="feBlend2" />
    </filter>
    <filter
       inkscape:menu-tooltip="In and out glow with a possible offset and colorizable flood"
       inkscape:menu="Shadows and Glows"
       inkscape:label="Cutout Glow"
       style="color-interpolation-filters:sRGB"
       id="filter1"
       x="-0.13577826"
       y="-0.66937739"
       width="1.3268816"
       height="2.6115041">
      <feOffset
         dy="3"
         dx="3"
         id="feOffset1" />
      <feGaussianBlur
         stdDeviation="3"
         result="blur"
         id="feGaussianBlur1" />
      <feFlood
         flood-color="rgb(0,0,0)"
         flood-opacity="1"
         result="flood"
         id="feFlood1" />
      <feComposite
         in="flood"
         in2="SourceGraphic"
         operator="in"
         result="composite"
         id="feComposite1" />
      <feBlend
         in="blur"
         in2="composite"
         mode="normal"
         id="feBlend1" />
    </filter>
    <filter
       style="color-interpolation-filters:sRGB"
       inkscape:label="Drop Shadow"
       id="filter38"
       x="0"
       y="0"
       width="1.0095935"
       height="1.0858861">
      <feFlood
         result="flood"
         in="SourceGraphic"
         flood-opacity="1.000000"
         flood-color="rgb(255,201,253)"
         id="feFlood36" />
      <feGaussianBlur
         result="blur"
         in="SourceGraphic"
         stdDeviation="0.000000"
         id="feGaussianBlur36" />
      <feOffset
         result="offset"
         in="blur"
         dx="0.800000"
         dy="0.700000"
         id="feOffset36" />
      <feComposite
         result="comp1"
         operator="in"
         in="flood"
         in2="offset"
         id="feComposite37" />
      <feComposite
         result="comp2"
         operator="over"
         in="SourceGraphic"
         in2="comp1"
         id="feComposite38" />
    </filter>
    <filter
       style="color-interpolation-filters:sRGB"
       inkscape:label="Drop Shadow"
       id="filter32"
       x="0"
       y="0"
       width="1.0124649"
       height="1.0481706">
      <feFlood
         result="flood"
         in="SourceGraphic"
         flood-opacity="0.498039"
         flood-color="rgb(255,255,255)"
         id="feFlood31" />
      <feGaussianBlur
         result="blur"
         in="SourceGraphic"
         stdDeviation="0.000000"
         id="feGaussianBlur31" />
      <feOffset
         result="offset"
         in="blur"
         dx="0.800000"
         dy="0.700000"
         id="feOffset31" />
      <feComposite
         result="comp1"
         operator="in"
         in="flood"
         in2="offset"
         id="feComposite31" />
      <feComposite
         result="comp2"
         operator="over"
         in="SourceGraphic"
         in2="comp1"
         id="feComposite32" />
    </filter>
    <filter
       style="color-interpolation-filters:sRGB"
       inkscape:label="Drop Shadow"
       id="filter34"
       x="0"
       y="0"
       width="1.0345747"
       height="1.0720569">
      <feFlood
         result="flood"
         in="SourceGraphic"
         flood-opacity="0.498039"
         flood-color="rgb(255,255,255)"
         id="feFlood32" />
      <feGaussianBlur
         result="blur"
         in="SourceGraphic"
         stdDeviation="0.000000"
         id="feGaussianBlur32" />
      <feOffset
         result="offset"
         in="blur"
         dx="0.800000"
         dy="0.700000"
         id="feOffset32" />
      <feComposite
         result="comp1"
         operator="in"
         in="flood"
         in2="offset"
         id="feComposite33" />
      <feComposite
         result="comp2"
         operator="over"
         in="SourceGraphic"
         in2="comp1"
         id="feComposite34" />
    </filter>
    <filter
       style="color-interpolation-filters:sRGB"
       inkscape:label="Drop Shadow"
       id="filter36"
       x="-0.0029978498"
       y="-0.014779191"
       width="1.0207491"
       height="1.0931998">
      <feFlood
         result="flood"
         in="SourceGraphic"
         flood-opacity="0.498039"
         flood-color="rgb(255,255,255)"
         id="feFlood34" />
      <feGaussianBlur
         result="blur"
         in="SourceGraphic"
         stdDeviation="0.000000"
         id="feGaussianBlur34" />
      <feOffset
         result="offset"
         in="blur"
         dx="0.800000"
         dy="0.700000"
         id="feOffset34" />
      <feComposite
         result="comp1"
         operator="in"
         in="flood"
         in2="offset"
         id="feComposite35" />
      <feComposite
         result="comp2"
         operator="over"
         in="SourceGraphic"
         in2="comp1"
         id="feComposite36" />
    </filter>
    <filter
       style="color-interpolation-filters:sRGB"
       inkscape:label="Drop Shadow"
       id="filter38-0"
       x="0"
       y="0"
       width="1.0105115"
       height="1.0845242">
      <feFlood
         result="flood"
         in="SourceGraphic"
         flood-opacity="1.000000"
         flood-color="rgb(4,4,4)"
         id="feFlood36-4" />
      <feGaussianBlur
         result="blur"
         in="SourceGraphic"
         stdDeviation="0.000000"
         id="feGaussianBlur36-8" />
      <feOffset
         result="offset"
         in="blur"
         dx="0.800000"
         dy="0.700000"
         id="feOffset36-7" />
      <feComposite
         result="comp1"
         operator="in"
         in="flood"
         in2="offset"
         id="feComposite37-1" />
      <feComposite
         result="comp2"
         operator="over"
         in="SourceGraphic"
         in2="comp1"
         id="feComposite38-7" />
    </filter>
    <filter
       style="color-interpolation-filters:sRGB"
       inkscape:label="Drop Shadow"
       id="filter52"
       x="0"
       y="0"
       width="1.0088391"
       height="1.0904372">
      <feFlood
         result="flood"
         in="SourceGraphic"
         flood-opacity="1.000000"
         flood-color="rgb(154,29,1)"
         id="feFlood51" />
      <feGaussianBlur
         result="blur"
         in="SourceGraphic"
         stdDeviation="0.000000"
         id="feGaussianBlur51" />
      <feOffset
         result="offset"
         in="blur"
         dx="0.400000"
         dy="0.400000"
         id="feOffset51" />
      <feComposite
         result="comp1"
         operator="in"
         in="flood"
         in2="offset"
         id="feComposite51" />
      <feComposite
         result="comp2"
         operator="over"
         in="SourceGraphic"
         in2="comp1"
         id="feComposite52" />
    </filter>
    <filter
       style="color-interpolation-filters:sRGB"
       inkscape:label="Drop Shadow"
       id="filter52-0"
       x="0"
       y="0"
       width="1.0088391"
       height="1.0904372">
      <feFlood
         result="flood"
         in="SourceGraphic"
         flood-opacity="1.000000"
         flood-color="rgb(154,29,1)"
         id="feFlood51-3" />
      <feGaussianBlur
         result="blur"
         in="SourceGraphic"
         stdDeviation="0.000000"
         id="feGaussianBlur51-6" />
      <feOffset
         result="offset"
         in="blur"
         dx="0.400000"
         dy="0.400000"
         id="feOffset51-1" />
      <feComposite
         result="comp1"
         operator="in"
         in="flood"
         in2="offset"
         id="feComposite51-0" />
      <feComposite
         result="comp2"
         operator="over"
         in="SourceGraphic"
         in2="comp1"
         id="feComposite52-6" />
    </filter>
    <filter
       inkscape:menu-tooltip="In and out glow with a possible offset and colorizable flood"
       inkscape:menu="Shadows and Glows"
       inkscape:label="Cutout Glow"
       style="color-interpolation-filters:sRGB"
       id="filter3-3"
       x="-0.11218411"
       y="-0.49546936"
       width="1.2711116"
       height="2.1973844">
      <feOffset
         dy="3"
         dx="3"
         id="feOffset3-2" />
      <feGaussianBlur
         stdDeviation="3"
         result="blur"
         id="feGaussianBlur3-0" />
      <feFlood
         flood-color="rgb(0,0,0)"
         flood-opacity="1"
         result="flood"
         id="feFlood3-6" />
      <feComposite
         in="flood"
         in2="SourceGraphic"
         operator="in"
         result="composite"
         id="feComposite3-1" />
      <feBlend
         in="blur"
         in2="composite"
         mode="normal"
         id="feBlend3-5" />
    </filter>
    <filter
       inkscape:menu-tooltip="In and out glow with a possible offset and colorizable flood"
       inkscape:menu="Shadows and Glows"
       inkscape:label="Cutout Glow"
       style="color-interpolation-filters:sRGB"
       id="filter2-5"
       x="-0.3111726"
       y="-0.74115622"
       width="1.7520005"
       height="2.7911277">
      <feOffset
         dy="3"
         dx="3"
         id="feOffset2-4" />
      <feGaussianBlur
         stdDeviation="3"
         result="blur"
         id="feGaussianBlur2-7" />
      <feFlood
         flood-color="rgb(0,0,0)"
         flood-opacity="1"
         result="flood"
         id="feFlood2-6" />
      <feComposite
         in="flood"
         in2="SourceGraphic"
         operator="in"
         result="composite"
         id="feComposite2-5" />
      <feBlend
         in="blur"
         in2="composite"
         mode="normal"
         id="feBlend2-6" />
    </filter>
    <filter
       inkscape:menu-tooltip="In and out glow with a possible offset and colorizable flood"
       inkscape:menu="Shadows and Glows"
       inkscape:label="Cutout Glow"
       style="color-interpolation-filters:sRGB"
       id="filter1-9"
       x="-0.13577826"
       y="-0.66937739"
       width="1.3268816"
       height="2.6115041">
      <feOffset
         dy="3"
         dx="3"
         id="feOffset1-3" />
      <feGaussianBlur
         stdDeviation="3"
         result="blur"
         id="feGaussianBlur1-7" />
      <feFlood
         flood-color="rgb(0,0,0)"
         flood-opacity="1"
         result="flood"
         id="feFlood1-4" />
      <feComposite
         in="flood"
         in2="SourceGraphic"
         operator="in"
         result="composite"
         id="feComposite1-5" />
      <feBlend
         in="blur"
         in2="composite"
         mode="normal"
         id="feBlend1-2" />
    </filter>
    <filter
       style="color-interpolation-filters:sRGB"
       inkscape:label="Drop Shadow"
       id="filter38-5"
       x="0"
       y="0"
       width="1.0095935"
       height="1.0858861">
      <feFlood
         result="flood"
         in="SourceGraphic"
         flood-opacity="1.000000"
         flood-color="rgb(255,201,253)"
         id="feFlood36-47" />
      <feGaussianBlur
         result="blur"
         in="SourceGraphic"
         stdDeviation="0.000000"
         id="feGaussianBlur36-4" />
      <feOffset
         result="offset"
         in="blur"
         dx="0.800000"
         dy="0.700000"
         id="feOffset36-4" />
      <feComposite
         result="comp1"
         operator="in"
         in="flood"
         in2="offset"
         id="feComposite37-3" />
      <feComposite
         result="comp2"
         operator="over"
         in="SourceGraphic"
         in2="comp1"
         id="feComposite38-0" />
    </filter>
    <mask
       maskUnits="userSpaceOnUse"
       id="mask5">
      <rect
         style="fill:#ffffff;stroke-width:0.288235;stroke-linejoin:round"
         id="rect5"
         width="219.42584"
         height="265.2319"
         x="250.45573"
         y="55.410549" />
    </mask>
    <filter
       style="color-interpolation-filters:sRGB"
       inkscape:label="Drop Shadow"
       id="filter32-7"
       x="0"
       y="0"
       width="1.0124649"
       height="1.0481706">
      <feFlood
         result="flood"
         in="SourceGraphic"
         flood-opacity="0.498039"
         flood-color="rgb(255,255,255)"
         id="feFlood31-8" />
      <feGaussianBlur
         result="blur"
         in="SourceGraphic"
         stdDeviation="0.000000"
         id="feGaussianBlur31-6" />
      <feOffset
         result="offset"
         in="blur"
         dx="0.800000"
         dy="0.700000"
         id="feOffset31-8" />
      <feComposite
         result="comp1"
         operator="in"
         in="flood"
         in2="offset"
         id="feComposite31-8" />
      <feComposite
         result="comp2"
         operator="over"
         in="SourceGraphic"
         in2="comp1"
         id="feComposite32-4" />
    </filter>
    <filter
       style="color-interpolation-filters:sRGB"
       inkscape:label="Drop Shadow"
       id="filter34-3"
       x="0"
       y="0"
       width="1.0345747"
       height="1.0720569">
      <feFlood
         result="flood"
         in="SourceGraphic"
         flood-opacity="0.498039"
         flood-color="rgb(255,255,255)"
         id="feFlood32-1" />
      <feGaussianBlur
         result="blur"
         in="SourceGraphic"
         stdDeviation="0.000000"
         id="feGaussianBlur32-4" />
      <feOffset
         result="offset"
         in="blur"
         dx="0.800000"
         dy="0.700000"
         id="feOffset32-9" />
      <feComposite
         result="comp1"
         operator="in"
         in="flood"
         in2="offset"
         id="feComposite33-2" />
      <feComposite
         result="comp2"
         operator="over"
         in="SourceGraphic"
         in2="comp1"
         id="feComposite34-0" />
    </filter>
    <filter
       style="color-interpolation-filters:sRGB"
       inkscape:label="Drop Shadow"
       id="filter36-6"
       x="-0.0029978498"
       y="-0.014779191"
       width="1.0207491"
       height="1.0931998">
      <feFlood
         result="flood"
         in="SourceGraphic"
         flood-opacity="0.498039"
         flood-color="rgb(255,255,255)"
         id="feFlood34-8" />
      <feGaussianBlur
         result="blur"
         in="SourceGraphic"
         stdDeviation="0.000000"
         id="feGaussianBlur34-9" />
      <feOffset
         result="offset"
         in="blur"
         dx="0.800000"
         dy="0.700000"
         id="feOffset34-2" />
      <feComposite
         result="comp1"
         operator="in"
         in="flood"
         in2="offset"
         id="feComposite35-6" />
      <feComposite
         result="comp2"
         operator="over"
         in="SourceGraphic"
         in2="comp1"
         id="feComposite36-6" />
    </filter>
    <filter
       style="color-interpolation-filters:sRGB"
       inkscape:label="Drop Shadow"
       id="filter38-0-4"
       x="0"
       y="0"
       width="1.0105115"
       height="1.0845242">
      <feFlood
         result="flood"
         in="SourceGraphic"
         flood-opacity="1.000000"
         flood-color="rgb(4,4,4)"
         id="feFlood36-4-9" />
      <feGaussianBlur
         result="blur"
         in="SourceGraphic"
         stdDeviation="0.000000"
         id="feGaussianBlur36-8-5" />
      <feOffset
         result="offset"
         in="blur"
         dx="0.800000"
         dy="0.700000"
         id="feOffset36-7-0" />
      <feComposite
         result="comp1"
         operator="in"
         in="flood"
         in2="offset"
         id="feComposite37-1-4" />
      <feComposite
         result="comp2"
         operator="over"
         in="SourceGraphic"
         in2="comp1"
         id="feComposite38-7-8" />
    </filter>
  </defs>
  <g
     inkscape:label="Layer 1"
     inkscape:groupmode="layer"
     id="layer1">
    <g
       id="g2">
      <path
         style="font-weight:bold;font-size:16.0571px;font-family:Quantico;-inkscape-font-specification:'Quantico, Bold';fill:none;stroke:#000000;stroke-width:0.0999998;stroke-linejoin:round"
         d="m 78.408479,40.310391 v 2.890278 h 4.479931 v 1.926853 H 76.160485 V 33.887551 h 6.727925 v 1.926852 h -4.479931 v 2.569136 h 3.516505 v 1.926852 z m 13.552189,-2.215879 v 7.03301 h -2.199822 v -6.230155 h -2.745765 v 6.230155 h -2.199822 v -8.108836 h 1.814452 l 0.38537,0.658341 1.140055,-0.658341 h 1.942909 z m 2.087412,9.248889 v -1.123997 l 1.862624,-1.091882 -1.541482,-0.899198 v -1.445139 l 1.140055,-0.658341 -1.140055,-0.658341 v -3.291706 l 1.862624,-1.075826 h 5.443354 v 1.027655 l -1.46119,0.851026 0.97948,0.578056 v 1.734167 L 99.330866,42.3657 h -2.761821 v 1.043712 h 3.243534 l 1.862621,1.075826 v 2.858163 l -1.862621,1.075826 h -3.901875 z m 5.4273,-2.215879 h -3.227477 v 1.445139 h 3.227477 z m -2.906335,-6.230155 v 1.669938 h 2.424622 v -1.669938 z m 12.155215,0.08028 h -2.76183 v 6.14987 h -2.19982 v -8.028551 h 1.81445 l 0.38537,0.658341 1.14006,-0.658341 h 1.62177 z m 3.48439,2.986621 v 1.396967 h 2.26405 v -1.396967 z m -0.3372,3.243534 -1.86262,-1.075826 v -2.777878 l 1.86262,-1.075826 h 2.60125 v -1.300625 h -3.66101 v -1.878681 h 3.99821 l 1.86263,1.075826 v 7.03301 h -1.05977 l -1.14006,-0.658341 -1.14005,0.658341 z m 18.49778,-7.113295 v 7.03301 h -2.19982 v -6.230155 h -2.34434 v 6.230155 h -2.19982 v -6.230155 h -2.34434 v 6.230155 h -2.19982 v -8.108836 h 1.81445 l 0.38537,0.658341 1.14006,-0.658341 h 1.54148 l 1.49331,0.867083 1.50937,-0.867083 h 1.54148 z m 8.76719,3.082963 v 2.874221 l -1.86262,1.075826 h -4.49599 v -1.878681 h 4.15879 v -1.236397 h -2.29617 l -1.86262,-1.075826 v -2.761821 l 1.86262,-1.075826 h 4.33542 v 1.878681 h -3.99822 v 1.123997 h 2.29617 z"
         id="text4"
         inkscape:label="engrams"
         aria-label="Engrams " />
      <path
         style="font-weight:900;font-size:12.6163px;font-family:Sans;-inkscape-font-specification:'Sans, Heavy';fill:none;stroke:#000000;stroke-width:0.0999998;stroke-linejoin:round"
         d="m 100.4663,57.221784 q 1.32471,0 2.06908,0.656047 0.74436,0.656048 0.74436,1.867213 v 4.579716 h -1.66535 l -0.46681,-0.920989 h -0.0505 q -0.29018,0.365872 -0.60558,0.605582 -0.3028,0.227093 -0.706517,0.328024 -0.403722,0.113546 -0.984072,0.113546 -0.908373,0 -1.513956,-0.555117 -0.605582,-0.555117 -0.605582,-1.7032 0,-1.122851 0.769594,-1.665352 0.782211,-0.542501 2.258318,-0.605582 l 1.160695,-0.03785 v -0.10093 q 0,-0.466804 -0.22709,-0.656048 -0.22709,-0.201861 -0.6182,-0.201861 -0.416335,0 -0.920987,0.151396 -0.504652,0.138779 -1.021921,0.365872 l -0.693896,-1.589653 q 0.605582,-0.315408 1.36256,-0.466803 0.769594,-0.164012 1.715814,-0.164012 z m -0.13878,4.011983 q -0.656044,0.02523 -0.933603,0.23971 -0.264942,0.201861 -0.264942,0.58035 0,0.353256 0.189245,0.529884 0.189244,0.164012 0.504652,0.164012 0.441568,0 0.744358,-0.277559 0.31541,-0.277558 0.31541,-0.719129 v -0.542501 z m 8.95757,-4.011983 q 1.085,0 1.76628,0.605582 0.68128,0.605583 0.68128,1.955527 v 4.541867 h -2.40972 v -3.810122 q 0,-0.693897 -0.20186,-1.047153 -0.20186,-0.353256 -0.64343,-0.353256 -0.68128,0 -0.92099,0.555117 -0.22709,0.555117 -0.22709,1.60227 v 3.053144 h -2.40971 v -6.976813 h 1.81674 l 0.32803,0.92099 h 0.0883 q 0.32803,-0.492036 0.85791,-0.769595 0.5425,-0.277558 1.27425,-0.277558 z m 6.25768,7.229139 q -1.07238,0 -1.7789,-0.920989 -0.69389,-0.92099 -0.69389,-2.687272 0,-1.791515 0.70651,-2.699888 0.71913,-0.92099 1.8546,-0.92099 0.70651,0 1.12285,0.290175 0.42895,0.290175 0.70651,0.731745 h 0.0505 q -0.0505,-0.264942 -0.0883,-0.731745 -0.0252,-0.466803 -0.0252,-0.908374 v -1.867212 h 2.42233 v 9.588387 h -1.81675 l -0.51727,-0.883141 h -0.0883 q -0.25233,0.416338 -0.6939,0.71913 -0.44157,0.290174 -1.1607,0.290174 z m 0.98407,-1.905061 q 0.58035,0 0.82006,-0.365872 0.23971,-0.365873 0.25233,-1.122851 v -0.189245 q 0,-0.820059 -0.23971,-1.26163 -0.22709,-0.44157 -0.85791,-0.44157 -0.42895,0 -0.71913,0.416338 -0.27756,0.416338 -0.27756,1.299479 0,0.870524 0.27756,1.274246 0.29018,0.391105 0.74436,0.391105 z"
         id="text5"
         inkscape:label="and"
         aria-label="and" />
      <path
         style="font-size:19.2722px;font-family:'Moon Dance';-inkscape-font-specification:'Moon Dance';fill:none;stroke:#000000;stroke-width:0.1;stroke-linejoin:round"
         d="m 75.697933,84.334274 q -0.289083,0 -0.289083,-0.327628 0,-0.173449 0.115633,-0.558893 0.134905,-0.385444 0.269811,-0.770888 0.154177,-0.385444 0.231266,-0.558894 0.154178,-0.404716 0.539622,-1.271965 0.385444,-0.886522 0.886521,-2.023581 0.501077,-1.13706 1.040699,-2.331937 0.539621,-1.214148 1.021426,-2.274119 0.501078,-1.059971 0.867249,-1.75377 v -0.134906 q 0,-0.385444 0.423989,-0.385444 0.289083,0 0.501077,0.211995 0.03854,0.03854 0.03854,0.173449 0,0.134906 0,0.17345 0,0.192722 -0.01927,0.385444 -0.01927,0.17345 -0.03854,0.3469 -0.09636,1.117787 -0.17345,2.177758 -0.05782,1.040699 -0.05782,1.965765 0,1.946492 0.308356,3.179913 0.327627,1.214148 1.040698,1.214148 0.3469,0 0.790161,-0.423988 0.462532,-0.443261 0.944337,-1.156332 0.501078,-0.732344 1.002155,-1.561048 0.501077,-0.847977 0.925065,-1.676682 0.443261,-0.828704 0.751616,-1.483959 0.327627,-0.674527 0.481805,-1.021427 l 0.539622,-1.214148 q 0.289083,-0.655255 0.404716,-0.982882 0.115633,-0.3469 0.269811,-0.481805 0.154177,-0.134906 0.558893,-0.134906 h 0.07709 q 0.134906,0 0.250539,0.03854 0.115633,0.01927 0.07709,0.154177 -0.404717,1.079243 -0.713072,2.409025 -0.289083,1.31051 -0.462533,2.698108 -0.154177,1.387598 -0.154177,2.71738 0,1.002155 0.09636,1.92722 0.115633,0.925066 0.346899,1.657409 0.01927,0.05782 0.01927,0.154178 0,0.192722 -0.154178,0.269811 -0.134905,0.07709 -0.289083,0.07709 -0.17345,0 -0.3469,-0.250539 -0.173449,-0.250539 -0.26981,-0.732344 -0.07709,-0.366171 -0.134906,-1.175604 -0.05782,-0.809432 -0.05782,-2.023581 0,-2.466841 0.501077,-4.875866 -0.770888,1.561048 -1.561048,2.987191 -0.790161,1.426142 -1.561049,2.524658 -0.751615,1.098515 -1.464687,1.734498 -0.693799,0.635982 -1.329781,0.635982 -0.616711,0 -1.002155,-0.79016 -0.366172,-0.79016 -0.539621,-2.081397 -0.17345,-1.291238 -0.17345,-2.775197 0,-0.886521 0.05782,-1.792315 0.05782,-0.905793 0.154178,-1.734498 -0.192722,0.462533 -0.61671,1.426143 -0.404717,0.96361 -0.944338,2.197031 -0.52035,1.233421 -1.079243,2.54393 -0.539622,1.31051 -1.002155,2.486114 -0.462533,1.156332 -0.732343,1.985036 -0.07709,0.308356 -0.366172,0.308356 z m 16.26573,-0.616711 q -0.713071,0 -0.96361,-0.404716 -0.250538,-0.423988 -0.250538,-1.079243 0,-0.693799 0.211994,-1.329782 0.211994,-0.635982 0.462533,-1.271965 -0.134906,-0.09636 -0.250539,-0.250539 -0.09636,-0.154177 -0.09636,-0.44326 0,-0.327628 0.385444,-0.828705 0.385444,-0.520349 0.867249,-0.905793 0.211994,-0.17345 0.558894,-0.366172 0.346899,-0.211994 0.713071,-0.3469 0.366172,-0.154177 0.597438,-0.154177 0.809433,0 1.079243,0.655255 0.269811,0.655254 0.192722,1.561048 0.07709,-0.03854 0.269811,-0.115633 0.211994,-0.07709 0.404716,-0.134906 0.192722,-0.07709 0.231267,-0.07709 0.09636,0 0.192722,0.09636 0.09636,0.09636 0.09636,0.192722 0,0.05782 -0.05782,0.09636 l -1.214148,0.462533 q -0.115634,0.597438 -0.385444,1.387599 -0.250539,0.79016 -0.6938,1.541776 -0.423988,0.732343 -1.021426,1.23342 -0.578166,0.481805 -1.329782,0.481805 z m 0.925066,-4.528967 q 0.481805,0 0.925065,-0.09636 0.443261,-0.115633 0.96361,-0.289083 0.01927,-0.09636 0.01927,-0.211994 0.01927,-0.115633 0.01927,-0.211994 0,-0.231266 -0.05782,-0.520349 -0.03854,-0.289083 -0.192722,-0.501078 -0.134905,-0.231266 -0.423988,-0.231266 -0.327628,0 -0.635983,0.250539 -0.308355,0.250538 -0.578166,0.597438 -0.250538,0.346899 -0.44326,0.674527 -0.17345,0.327627 -0.250539,0.481805 0.3469,0.05782 0.655255,0.05782 z m -0.751616,4.008618 q 0.539622,0 0.944338,-0.3469 0.423988,-0.366171 0.732343,-0.944337 0.308355,-0.578166 0.52035,-1.252693 0.231266,-0.674527 0.366171,-1.329782 -0.578166,0.192722 -1.329781,0.385444 -0.732344,0.17345 -1.349054,0.09636 -0.192722,0.520349 -0.3469,1.175604 -0.134905,0.655255 -0.134905,1.214149 0,0.308355 0.09636,0.655254 0.115633,0.3469 0.501077,0.3469 z m 5.704577,0.520349 q -0.713071,0 -0.96361,-0.404716 -0.250538,-0.423988 -0.250538,-1.079243 0,-0.693799 0.211994,-1.329782 0.211994,-0.635982 0.462533,-1.271965 -0.134906,-0.09636 -0.250539,-0.250539 -0.09636,-0.154177 -0.09636,-0.44326 0,-0.327628 0.385444,-0.828705 0.385444,-0.520349 0.867249,-0.905793 0.211994,-0.17345 0.558894,-0.366172 0.346899,-0.211994 0.713071,-0.3469 0.366172,-0.154177 0.597443,-0.154177 0.80943,0 1.07924,0.655255 0.26981,0.655254 0.19272,1.561048 0.0771,-0.03854 0.26981,-0.115633 0.212,-0.07709 0.40472,-0.134906 0.19272,-0.07709 0.23126,-0.07709 0.0964,0 0.19273,0.09636 0.0964,0.09636 0.0964,0.192722 0,0.05782 -0.0578,0.09636 l -1.21415,0.462533 q -0.11563,0.597438 -0.38544,1.387599 -0.25054,0.79016 -0.6938,1.541776 -0.42399,0.732343 -1.021428,1.23342 -0.578166,0.481805 -1.329782,0.481805 z m 0.925066,-4.528967 q 0.481805,0 0.925065,-0.09636 0.443259,-0.115633 0.963609,-0.289083 0.0193,-0.09636 0.0193,-0.211994 0.0193,-0.115633 0.0193,-0.211994 0,-0.231266 -0.0578,-0.520349 -0.0386,-0.289083 -0.19272,-0.501078 -0.13491,-0.231266 -0.42399,-0.231266 -0.327629,0 -0.635984,0.250539 -0.308355,0.250538 -0.578166,0.597438 -0.250539,0.346899 -0.443261,0.674527 -0.173449,0.327627 -0.250538,0.481805 0.346899,0.05782 0.655255,0.05782 z m -0.751616,4.008618 q 0.539621,0 0.944338,-0.3469 0.423988,-0.366171 0.732343,-0.944337 0.308359,-0.578166 0.520349,-1.252693 0.23127,-0.674527 0.36617,-1.329782 -0.57816,0.192722 -1.329779,0.385444 -0.732344,0.17345 -1.349054,0.09636 -0.192722,0.520349 -0.3469,1.175604 -0.134905,0.655255 -0.134905,1.214149 0,0.308355 0.09636,0.655254 0.115633,0.3469 0.501077,0.3469 z m 4.20135,0.674527 q -0.15418,0 -0.15418,-0.115633 l 0.25054,-0.732344 q 0.0964,-0.250538 0.11563,-0.481805 0.0385,-0.250538 0.11563,-0.501077 0.11564,-0.501077 0.25054,-1.002154 0.13491,-0.501078 0.28908,-0.982883 0.0578,-0.173449 0.15418,-0.501077 0.0964,-0.327627 0.17345,-0.655255 0.0964,-0.346899 0.0964,-0.520349 0,-0.09636 -0.1349,-0.07709 -0.11564,0.01927 -0.13491,-0.03854 0.13491,-0.3469 0.23127,-0.713072 0.0964,-0.366171 0.23126,-0.713071 0.0578,-0.154178 0.30836,-0.289083 0.25054,-0.154178 0.40472,-0.154178 0.26981,0 0.26981,0.3469 0,0.308355 -0.15418,0.944338 -0.15418,0.635982 -0.40472,1.387598 -0.23126,0.751616 -0.46253,1.464687 -0.21199,0.6938 -0.36617,1.13706 0.61671,-0.578166 1.23342,-1.271965 0.61671,-0.693799 1.11779,-1.387598 0.52035,-0.713072 0.80943,-1.291238 0,-0.211994 0.26981,-0.289083 0.28908,-0.07709 0.44326,-0.03854 0.0771,-0.03854 0.11563,-0.03854 0.17345,0 0.212,0.269811 0.0578,0.250539 0.0578,0.366172 0,0.211994 -0.0578,0.597438 -0.0386,0.366172 -0.26981,0.481805 -0.0193,0.154178 -0.0193,0.327628 0,0.154177 0,0.308355 0,0.231266 0.0193,0.770888 0.0385,0.520349 0.1349,1.098515 0.0964,0.578166 0.30836,1.002155 0.21199,0.404716 0.57816,0.404716 0.3469,0 0.59744,-0.192722 0.26981,-0.192722 0.46253,-0.443261 0.19273,-0.250538 0.30836,-0.44326 0.11563,-0.192722 0.17345,-0.192722 0.0964,0 0.0964,0.115633 0,0.269811 -0.28908,0.655255 -0.26981,0.385444 -0.46253,0.578166 -0.212,0.231266 -0.50108,0.404716 -0.28909,0.17345 -0.61671,0.17345 -0.57817,0 -0.9058,-0.404717 -0.32762,-0.423988 -0.50107,-1.021426 -0.15418,-0.616711 -0.212,-1.233421 -0.0385,-0.635983 -0.0385,-1.040699 0,-0.366172 0,-0.713071 0.0193,-0.3469 0.0385,-0.693799 -0.30835,0.539621 -0.71307,1.040698 -0.40471,0.501078 -0.79016,0.982883 -0.57816,0.655254 -1.13706,1.426142 -0.0964,0.134906 -0.19272,0.327628 -0.0771,0.17345 -0.21199,0.308355 l -0.0386,0.03854 q -0.1349,0.366172 -0.17345,0.558894 -0.0385,0.192722 -0.38544,0.423989 -0.11564,0.07709 -0.25054,0.154177 -0.13491,0.07709 -0.28908,0.07709 z m 7.9016,-0.308355 q -0.30835,0 -0.38544,-0.211994 -0.0578,-0.211995 -0.0578,-0.462533 0,-0.192722 0.0964,-0.52035 0.0964,-0.327627 0.19272,-0.655254 0.11564,-0.3469 0.17345,-0.52035 0.0386,-0.115633 0.17345,-0.501077 0.13491,-0.385444 0.26981,-0.770888 0.13491,-0.385444 0.13491,-0.481805 -0.0193,0 -0.0385,0.01927 -0.0193,0 -0.0578,0 -0.17345,0 -0.17345,-0.231266 0,-0.211994 0.0578,-0.443261 0.0578,-0.250538 0.1349,-0.44326 0.0964,-0.211995 0.13491,-0.404717 0.0578,-0.211994 0.0964,-0.423988 0.0385,-0.154178 0.23126,-0.231266 0.19273,-0.07709 0.42399,-0.09636 0.25054,-0.03854 0.36617,-0.03854 0.0964,0 0.212,0.03854 0.1349,0.01927 0.1349,0.154177 0,0.03854 -0.0385,0.154178 -0.0386,0.09636 -0.0578,0.134905 -0.26981,0.655255 -0.61671,1.387599 -0.32763,0.713071 -0.57816,1.464687 -0.23127,0.732343 -0.23127,1.464687 0,0.134905 0.0385,0.404716 0.0578,0.250539 0.26982,0.250539 0.21199,0 0.46253,-0.231267 0.26981,-0.231266 0.40471,-0.366171 0.79016,-0.809433 1.40687,-1.753771 0.61671,-0.944337 0.96361,-2.023581 0.0386,-0.134905 0.17345,-0.44326 0.13491,-0.327628 0.32763,-0.327628 0.19272,0 0.38545,0.01927 0.19272,0.01927 0.38544,0.05782 -0.53962,1.002155 -0.77089,2.081398 -0.23126,1.079243 -0.23126,2.216303 0,0.211994 0.0578,0.501077 0.0771,0.289083 0.36617,0.289083 0.3469,0 0.71308,-0.308355 0.36617,-0.327628 0.57816,-0.558894 0.44326,-0.481805 0.88652,-1.214149 0.46254,-0.732343 0.77089,-1.522503 0.30836,-0.790161 0.30836,-1.445415 0,-0.423989 -0.13491,-0.674527 -0.13491,-0.250539 -0.13491,-0.443261 0,-0.192722 0.0964,-0.404716 0.11563,-0.211994 0.3469,-0.211994 0.25053,0 0.38544,0.385444 0.15418,0.366171 0.15418,0.828704 0,1.098516 -0.5589,2.197031 -0.53962,1.079243 -1.1756,1.92722 -0.28908,0.404716 -0.77089,0.96361 -0.4818,0.558894 -1.05997,0.982882 -0.55889,0.423989 -1.13706,0.423989 -0.40472,0 -0.50108,-0.327628 -0.0771,-0.346899 -0.0771,-0.674527 0,-1.291237 0.23127,-2.582475 -0.55889,0.925066 -1.34905,1.907948 -0.79016,0.96361 -1.77305,1.48396 -0.1349,0.07709 -0.30835,0.154177 -0.17345,0.05782 -0.32763,0.05782 z m 14.04944,0.09636 q -0.53962,0 -0.80943,-0.385444 -0.26981,-0.385444 -0.36617,-0.886521 -0.0771,-0.52035 -0.0771,-0.925066 0,-0.404716 0.0385,-0.79016 0.0578,-0.404716 0.11564,-0.79016 -0.19273,0.250538 -0.53963,0.713071 -0.3469,0.443261 -0.79016,0.982882 -0.44326,0.52035 -0.90579,1.002155 -0.46253,0.462532 -0.90579,0.770888 -0.42399,0.289083 -0.73235,0.289083 -0.26981,0 -0.3469,-0.250539 -0.0578,-0.250539 -0.0578,-0.443261 0,-0.867249 0.3469,-1.830859 0.3469,-0.96361 0.71307,-1.734498 0.0964,-0.211994 0.28908,-0.578166 0.19272,-0.366171 0.44326,-0.751615 0.26981,-0.385444 0.5589,-0.635983 0.28908,-0.250539 0.57816,-0.211994 0.212,-0.134906 0.40472,-0.231267 0.21199,-0.115633 0.46253,-0.115633 0.15418,0 0.50108,0.09636 0.36617,0.09636 0.52035,0.134906 0.0771,-0.154178 0.23126,-0.231267 0.15418,-0.07709 0.30836,-0.07709 0.15418,0 0.21199,0.01927 0.0771,-0.03854 0.11564,-0.03854 0.11563,0 0.15417,0.17345 0.0386,0.154178 0.0386,0.250539 0,0.250538 -0.0578,0.44326 -0.0578,0.192722 -0.15418,0.423989 -0.0771,0.192722 -0.1349,0.366171 -0.0386,0.154178 -0.212,0.289083 -0.1349,0.6938 -0.21199,1.406871 -0.0578,0.693799 -0.0578,1.406871 0,0.250538 0.0193,0.597438 0.0385,0.346899 0.17345,0.61671 0.15417,0.269811 0.46253,0.269811 0.4818,0 0.84798,-0.3469 0.38544,-0.366171 0.63598,-0.693799 0.0385,-0.05782 0.0964,-0.115633 0.0578,-0.07709 0.1349,-0.115633 l 0.0578,0.115633 q 0,0.192722 -0.19272,0.462533 -0.19272,0.269811 -0.42399,0.520349 -0.23127,0.231267 -0.38544,0.3469 -0.23127,0.192722 -0.52035,0.346899 -0.26981,0.134906 -0.57817,0.134906 z m -4.31697,-0.809433 q 0.11563,0 0.25054,-0.09636 0.1349,-0.09636 0.21199,-0.173449 0.90579,-0.790161 1.59959,-1.773043 0.71308,-0.982882 1.23342,-2.042853 0.0578,-0.09636 0.11564,-0.211994 0.0578,-0.115633 0.0771,-0.231267 0.0385,-0.154177 0.0771,-0.327627 0.0385,-0.192722 0.0578,-0.3469 -0.0193,-0.09636 -0.21199,-0.173449 -0.19272,-0.07709 -0.42399,-0.115634 -0.21199,-0.05782 -0.30836,-0.05782 -0.36617,0 -0.65525,0.308355 -0.26981,0.289083 -0.46253,0.558894 -0.23127,0.346899 -0.53963,0.905793 -0.28908,0.558894 -0.57816,1.194877 -0.26981,0.61671 -0.46253,1.194876 -0.17345,0.578166 -0.17345,0.982882 0,0.09636 0.0193,0.250539 0.0385,0.154177 0.17345,0.154177 z m 6.49475,0.655255 q -0.17345,0 -0.30836,-0.09636 -0.11563,-0.09636 -0.11563,-0.289083 0,-0.269811 0.0385,-0.674527 0.0386,-0.404716 0.0771,-0.693799 0.15418,-0.925066 0.3469,-1.850131 0.212,-0.944338 0.46254,-1.850131 0.23126,-0.886522 0.53962,-1.869404 0.30835,-1.002154 0.75161,-1.946492 0.44326,-0.944338 1.07925,-1.695953 0.65525,-0.770888 1.56104,-1.175605 0.23127,-0.09636 0.48181,-0.154177 0.25054,-0.07709 0.50108,-0.07709 0.23126,0 0.53962,0.09636 0.32762,0.09636 0.55889,0.289083 0.23127,0.17345 0.23127,0.462533 0,0.115633 -0.0578,0.17345 -0.0385,0.05782 -0.30835,0.250538 -0.25054,0.17345 -0.28909,0.192722 -0.0385,-0.03854 -0.0385,-0.05782 0,-0.05782 0.0578,-0.115634 0.0578,-0.05782 0.0578,-0.134905 0,-0.192722 -0.21199,-0.3469 -0.212,-0.173449 -0.48181,-0.26981 -0.26981,-0.115634 -0.44326,-0.115634 -0.63598,0 -1.1756,0.539622 -0.52035,0.539622 -0.94434,1.387598 -0.42399,0.828705 -0.75162,1.773043 -0.32762,0.925065 -0.55889,1.75377 -0.23127,0.828704 -0.36617,1.329782 -0.15418,0.558893 -0.32763,1.252693 -0.17345,0.693799 -0.30835,1.40687 -0.11564,0.693799 -0.11564,1.291238 0,0.173449 0.0578,0.366171 0.0771,0.17345 0.28908,0.17345 0.28909,0 0.59744,-0.192722 0.32763,-0.192722 0.61671,-0.44326 0.30836,-0.269811 0.52035,-0.462533 0.23127,-0.192722 0.30836,-0.192722 0.0385,0 0.0385,0.03854 0,0.134906 -0.0771,0.269811 -0.0771,0.134905 -0.17345,0.231266 -0.25054,0.250539 -0.71307,0.597439 -0.46253,0.327627 -0.98288,0.578166 -0.52035,0.250538 -0.96361,0.250538 z m 2.94864,0.385444 q -0.17345,0 -0.17345,-0.134905 l 0.25054,-0.732344 q 0.0964,-0.269811 0.13491,-0.539621 0.0385,-0.269811 0.11563,-0.539622 0.1349,-0.558894 0.26981,-1.098515 0.1349,-0.539622 0.28908,-1.079244 -0.0385,-0.09636 -0.19272,-0.385444 -0.15418,-0.289083 -0.15418,-0.385444 0,-0.423988 0.44326,-0.423988 0.13491,0 0.212,0.05782 0.25054,-0.925066 0.55889,-2.004309 0.30836,-1.079243 0.75162,-2.119942 0.44326,-1.040699 1.11778,-1.869403 0.67453,-0.828705 1.63814,-1.271966 0.23127,-0.09636 0.48181,-0.154177 0.25053,-0.07709 0.50107,-0.07709 0.23127,0 0.53963,0.09636 0.32762,0.09636 0.55889,0.289083 0.23127,0.17345 0.23127,0.462533 0,0.115633 -0.0578,0.17345 -0.0193,0.01927 -0.15418,0.134905 -0.1349,0.09636 -0.26981,0.192722 -0.13491,0.09636 -0.17345,0.115633 -0.0385,-0.03854 -0.0385,-0.05782 0,-0.05782 0.0578,-0.115634 0.0578,-0.05782 0.0578,-0.134905 0,-0.192722 -0.21199,-0.3469 -0.212,-0.173449 -0.48181,-0.26981 -0.26981,-0.115634 -0.44326,-0.115634 -0.57817,0 -1.07924,0.462533 -0.50108,0.443261 -0.92507,1.194877 -0.40472,0.732343 -0.75161,1.618864 -0.3469,0.886521 -0.61672,1.773043 -0.25053,0.886521 -0.44326,1.638137 -0.19272,0.732343 -0.30835,1.156332 0.0385,0.134905 0.0578,0.231266 0.0385,0.09636 0.0385,0.09636 0.61671,-0.79016 1.42614,-1.58032 0.82871,-0.790161 1.65741,-1.368327 0.15418,-0.09636 0.38545,-0.09636 0.1349,0 0.28908,0.05782 0.17345,0.03854 0.17345,0.211994 0,0.154178 -0.23127,0.366172 -0.23126,0.211994 -0.52035,0.385444 -0.26981,0.17345 -0.38544,0.250539 -0.65526,0.44326 -1.36833,0.982882 -0.71307,0.539621 -1.27196,1.079243 0.19272,0.3469 0.52035,0.847977 0.32762,0.481805 0.6938,0.96361 0.38544,0.462533 0.75161,0.79016 0.38545,0.308355 0.6938,0.308355 0.28908,0 0.44326,-0.231266 0.17345,-0.231267 0.25054,-0.52035 0.0964,-0.308355 0.13491,-0.520349 0.0193,-0.03854 0.0385,-0.17345 0.0385,-0.154177 0.11563,-0.154177 0.0964,0 0.11564,0.07709 0.0385,0.07709 0.0385,0.154178 0,0.03854 -0.0193,0.07709 0,0.03854 0,0.07709 -0.0386,0.366171 -0.0964,0.828704 -0.0386,0.462533 -0.32763,0.751616 -0.32763,0.327627 -0.75162,0.327627 -0.42398,0 -0.88652,-0.289083 -0.44326,-0.308355 -0.86725,-0.770888 -0.40471,-0.481805 -0.73234,-1.002154 -0.32763,-0.539622 -0.53962,-0.982882 -0.0964,0.231266 -0.23127,0.578166 -0.11563,0.346899 -0.21199,0.693799 -0.0964,0.327627 -0.13491,0.501077 0.0771,0.134906 0.0771,0.327628 0,0.346899 -0.11563,0.597438 -0.11563,0.231266 -0.40472,0.404716 -0.11563,0.07709 -0.25054,0.134905 -0.1349,0.07709 -0.28908,0.07709 z m 7.05364,-0.250538 q -0.3469,0 -0.3469,-0.289083 0,-0.231267 0.30835,-0.385444 0.32763,-0.17345 0.77089,-0.289083 0.46253,-0.115634 0.86725,-0.17345 0.40472,-0.05782 0.57817,-0.07709 0.0964,-0.09636 0.15417,-0.211994 0.0578,-0.134906 0.0578,-0.269811 0,-0.154178 -0.0964,-0.250539 -0.0771,-0.115633 -0.212,-0.192722 -0.34689,-0.211994 -0.86724,-0.558893 -0.52035,-0.3469 -0.92507,-0.770888 -0.38544,-0.443261 -0.38544,-0.905794 0,-0.269811 0.1349,-0.423988 0.3469,-0.443261 0.88652,-0.982882 0.5589,-0.558894 1.19488,-0.944338 0.65525,-0.404716 1.25269,-0.404716 0.53962,0 0.65526,0.173449 0.11563,0.17345 0.11563,0.655255 0,0.327628 -0.11563,0.732344 -0.11564,0.385444 -0.48181,0.539621 h -0.0385 q -0.0578,0 -0.0771,-0.173449 0,-0.192722 0,-0.3469 0,-0.115633 0,-0.3469 0,-0.231266 -0.0964,-0.423988 -0.0964,-0.211994 -0.36617,-0.211994 -0.26981,0 -0.63599,0.17345 -0.36617,0.154177 -0.73234,0.44326 -0.3469,0.269811 -0.57817,0.578166 -0.23126,0.308355 -0.23126,0.597438 0,0.481805 0.3469,0.809433 0.36617,0.327627 0.84797,0.578166 0.48181,0.250538 0.82871,0.520349 0.36617,0.269811 0.36617,0.635983 0,0.269811 -0.13491,0.520349 -0.1349,0.231267 -0.30835,0.423989 0.19272,-0.01927 0.38544,-0.01927 0.212,-0.01927 0.40472,-0.01927 0.17345,0 0.17345,0.09636 0,0.09636 -0.0578,0.134906 -0.0578,0.01927 -0.15417,0.03854 -0.28909,0.03854 -0.59744,0.07709 -0.28909,0.03854 -0.57817,0.09636 -0.53962,0.481805 -1.05997,0.674527 -0.52035,0.17345 -1.25269,0.17345 z"
         id="text7"
         inkscape:label="moonwalks"
         aria-label="Moonwalks" />
      <path
         style="font-weight:800;font-size:4.42295px;font-family:'Open Sans';-inkscape-font-specification:'Open Sans, Ultra-Bold';fill:none;stroke:#000000;stroke-width:0.1;stroke-linejoin:round"
         d="m 87.601842,186.53574 -0.155495,-0.59175 h -1.02583 l -0.159814,0.59175 h -0.937285 l 1.03015,-3.17036 H 87.4917 l 1.043107,3.17036 z m -0.332586,-1.29147 -0.136057,-0.51832 q -0.04751,-0.17277 -0.116621,-0.44704 -0.06695,-0.27428 -0.08854,-0.39306 -0.01944,0.11015 -0.07775,0.36282 -0.05615,0.25268 -0.252679,0.9956 z m 4.561167,1.29147 v -1.33034 q 0,-0.24836 -0.06911,-0.37146 -0.06695,-0.12526 -0.213805,-0.12526 -0.194368,0 -0.285073,0.16629 -0.0907,0.16629 -0.0907,0.52047 v 1.1403 h -0.84658 v -1.33034 q 0,-0.24836 -0.06479,-0.37146 -0.06479,-0.12526 -0.209486,-0.12526 -0.198687,0 -0.289392,0.17709 -0.0907,0.17709 -0.0907,0.57878 v 1.07119 h -0.844421 v -2.44688 h 0.637095 l 0.105823,0.30235 h 0.04967 q 0.09718,-0.16845 0.280754,-0.257 0.185729,-0.0885 0.421131,-0.0885 0.529112,0 0.742917,0.32178 h 0.06695 q 0.103663,-0.15117 0.287232,-0.2354 0.18573,-0.0864 0.408173,-0.0864 0.434088,0 0.641414,0.22244 0.207326,0.22244 0.207326,0.67597 v 1.59166 z m 2.600211,0.0432 q -0.611179,0 -0.950243,-0.32395 -0.336905,-0.3261 -0.336905,-0.92648 0,-0.61982 0.313149,-0.95025 0.313148,-0.33258 0.894092,-0.33258 0.552869,0 0.853059,0.28939 0.30235,0.28723 0.30235,0.8293 v 0.37578 h -1.509591 q 0.0086,0.20517 0.149016,0.32179 0.142536,0.11662 0.386576,0.11662 0.222443,0 0.408173,-0.041 0.187889,-0.0432 0.406013,-0.14469 v 0.60686 q -0.198688,0.1015 -0.410333,0.14038 -0.211645,0.0389 -0.505356,0.0389 z m -0.04967,-1.9588 q -0.149015,0 -0.250519,0.095 -0.09934,0.0929 -0.11662,0.29371 h 0.72564 q -0.0043,-0.17709 -0.101503,-0.28292 -0.09503,-0.10582 -0.256998,-0.10582 z m 2.801058,1.29147 q 0.170612,0 0.408173,-0.0842 v 0.6155 q -0.170612,0.0734 -0.326107,0.10366 -0.153334,0.0324 -0.36066,0.0324 -0.42545,0 -0.613339,-0.20733 -0.187889,-0.20948 -0.187889,-0.64141 v -1.00855 h -0.295871 v -0.34339 l 0.375778,-0.26563 0.218124,-0.514 h 0.552869 v 0.49024 h 0.600381 v 0.63278 h -0.600381 v 0.9524 q 0,0.23756 0.228922,0.23756 z m 2.375607,0.62414 v -1.33466 q 0,-0.4924 -0.291552,-0.4924 -0.207325,0 -0.306669,0.17493 -0.09718,0.17277 -0.09718,0.57662 v 1.07551 h -0.84442 v -3.36041 h 0.84442 v 0.47728 q 0,0.32395 -0.03455,0.7386 h 0.03887 q 0.12094,-0.19005 0.287233,-0.2678 0.166293,-0.0777 0.386576,-0.0777 0.410332,0 0.6371,0.23756 0.22892,0.2354 0.22892,0.66085 v 1.59166 z m 1.127333,-2.44688 h 0.88978 l 0.41465,1.40377 q 0.0302,0.11014 0.041,0.26563 h 0.0173 q 0.0173,-0.14901 0.0518,-0.26131 l 0.42545,-1.40809 h 0.8617 l -0.96752,2.60237 q -0.18573,0.49672 -0.45785,0.70188 -0.26995,0.20517 -0.7062,0.20517 -0.16845,0 -0.34554,-0.0367 v -0.66301 q 0.11446,0.0259 0.26131,0.0259 0.1123,0 0.19653,-0.0432 0.0842,-0.0432 0.14686,-0.1231 0.0626,-0.0778 0.13389,-0.257 z m 4.88295,1.69532 q 0,0.39306 -0.26779,0.5939 -0.2678,0.20085 -0.76883,0.20085 -0.27212,0 -0.47297,-0.0302 -0.20084,-0.0281 -0.41033,-0.10582 v -0.67597 q 0.19653,0.0864 0.42977,0.14254 0.2354,0.0562 0.41897,0.0562 0.27428,0 0.27428,-0.12526 0,-0.0648 -0.0778,-0.11446 -0.0756,-0.0518 -0.44489,-0.19869 -0.3369,-0.13821 -0.4708,-0.31315 -0.1339,-0.17709 -0.1339,-0.44704 0,-0.34123 0.26348,-0.53127 0.26348,-0.19005 0.74508,-0.19005 0.24188,0 0.45352,0.054 0.21381,0.0518 0.44273,0.15333 l -0.22892,0.54423 q -0.16846,-0.0756 -0.35635,-0.12742 -0.18788,-0.054 -0.30666,-0.054 -0.20733,0 -0.20733,0.10151 0,0.0626 0.0713,0.10798 0.0734,0.0432 0.41897,0.17925 0.257,0.10582 0.38226,0.20732 0.12741,0.10151 0.18572,0.23973 0.0605,0.13605 0.0605,0.33258 z m 1.66725,0.12742 q 0.17061,0 0.40817,-0.0842 v 0.6155 q -0.17061,0.0734 -0.3261,0.10366 -0.15334,0.0324 -0.36066,0.0324 -0.42545,0 -0.61334,-0.20733 -0.18789,-0.20948 -0.18789,-0.64141 v -1.00855 h -0.29587 v -0.34339 l 0.37578,-0.26563 0.21812,-0.514 h 0.55287 v 0.49024 h 0.60038 v 0.63278 h -0.60038 v 0.9524 q 0,0.23756 0.22892,0.23756 z m 3.59149,0.62414 h -0.85738 v -1.28715 h -0.99128 v 1.28715 h -0.85738 v -3.1574 h 0.85738 v 1.17052 h 0.99128 v -1.17052 h 0.85738 z m 1.8141,0.0432 q -0.61118,0 -0.95024,-0.32395 -0.33691,-0.3261 -0.33691,-0.92648 0,-0.61982 0.31315,-0.95025 0.31315,-0.33258 0.89409,-0.33258 0.55287,0 0.85306,0.28939 0.30235,0.28723 0.30235,0.8293 v 0.37578 h -1.50959 q 0.009,0.20517 0.14902,0.32179 0.14253,0.11662 0.38657,0.11662 0.22244,0 0.40817,-0.041 0.18789,-0.0432 0.40602,-0.14469 v 0.60686 q -0.19869,0.1015 -0.41034,0.14038 -0.21164,0.0389 -0.50535,0.0389 z m -0.0497,-1.9588 q -0.14902,0 -0.25052,0.095 -0.0994,0.0929 -0.11662,0.29371 h 0.72564 q -0.004,-0.17709 -0.10151,-0.28292 -0.095,-0.10582 -0.25699,-0.10582 z m 3.19843,1.91561 -0.16198,-0.32395 h -0.0173 q -0.17061,0.21164 -0.34771,0.28939 -0.17709,0.0778 -0.45784,0.0778 -0.34554,0 -0.54423,-0.20733 -0.19869,-0.20732 -0.19869,-0.5831 0,-0.3909 0.27212,-0.58094 0.27211,-0.19221 0.78827,-0.21597 l 0.40817,-0.013 v -0.0345 q 0,-0.30235 -0.29803,-0.30235 -0.2678,0 -0.68029,0.18141 l -0.24404,-0.55719 q 0.42761,-0.22028 1.07982,-0.22028 0.47081,0 0.7278,0.23324 0.25916,0.23324 0.25916,0.65221 v 1.60462 z m -0.6263,-0.55287 q 0.15334,0 0.26132,-0.0972 0.11014,-0.0972 0.11014,-0.25267 v -0.19005 l -0.19437,0.009 q -0.41681,0.0151 -0.41681,0.30666 0,0.22461 0.23972,0.22461 z m 3.26322,-1.9372 q 0.11014,0 0.20949,0.0173 l 0.0475,0.009 -0.0756,0.79691 q -0.10366,-0.0259 -0.28723,-0.0259 -0.27643,0 -0.40169,0.12741 -0.12526,0.12526 -0.12526,0.36282 v 1.20293 h -0.84442 v -2.44688 h 0.62845 l 0.13174,0.3909 h 0.041 q 0.10583,-0.19437 0.29372,-0.31315 0.19004,-0.12094 0.38225,-0.12094 z m 1.79682,1.86593 q 0.17062,0 0.40818,-0.0842 v 0.6155 q -0.17061,0.0734 -0.32611,0.10366 -0.15333,0.0324 -0.36066,0.0324 -0.42545,0 -0.61334,-0.20733 -0.18789,-0.20948 -0.18789,-0.64141 v -1.00855 h -0.29587 v -0.34339 l 0.37578,-0.26563 0.21812,-0.514 h 0.55287 v 0.49024 h 0.60038 v 0.63278 h -0.60038 v 0.9524 q 0,0.23756 0.22892,0.23756 z m 2.96736,0.62414 h -2.29139 v -0.56151 l 0.771,-0.77963 q 0.33042,-0.34555 0.43193,-0.4708 0.1015,-0.12742 0.14037,-0.21813 0.041,-0.0907 0.041,-0.19005 0,-0.1231 -0.0799,-0.19437 -0.0799,-0.0713 -0.2246,-0.0713 -0.14902,0 -0.30235,0.0864 -0.15118,0.0842 -0.34339,0.25052 l -0.46864,-0.54855 q 0.24404,-0.21812 0.41033,-0.31099 0.1663,-0.095 0.36066,-0.14469 0.19653,-0.0497 0.44057,-0.0497 0.30667,0 0.54639,0.10799 0.24188,0.10798 0.37362,0.30883 0.1339,0.19868 0.1339,0.44704 0,0.18573 -0.0475,0.34339 -0.0453,0.15765 -0.14253,0.31098 -0.0972,0.15118 -0.25916,0.31963 -0.15981,0.16845 -0.68461,0.63926 v 0.0216 h 1.19429 z m 2.69307,-0.61118 h -0.3477 v 0.61118 h -0.84226 v -0.61118 h -1.25907 v -0.6263 l 1.31306,-1.91992 h 0.78827 v 1.90912 h 0.3477 z m -1.18996,-0.6371 v -0.36714 q 0,-0.10366 0.006,-0.27859 0.009,-0.17709 0.013,-0.18573 h -0.0237 q -0.0734,0.16629 -0.16629,0.31099 l -0.34987,0.52047 z m 3.68003,1.24828 h -2.29138 v -0.56151 l 0.77099,-0.77963 q 0.33043,-0.34555 0.43193,-0.4708 0.1015,-0.12742 0.14038,-0.21813 0.041,-0.0907 0.041,-0.19005 0,-0.1231 -0.0799,-0.19437 -0.0799,-0.0713 -0.2246,-0.0713 -0.14902,0 -0.30235,0.0864 -0.15117,0.0842 -0.34338,0.25052 l -0.46865,-0.54855 q 0.24404,-0.21812 0.41034,-0.31099 0.16629,-0.095 0.36066,-0.14469 0.19652,-0.0497 0.44056,-0.0497 0.30667,0 0.54639,0.10799 0.24188,0.10798 0.37362,0.30883 0.1339,0.19868 0.1339,0.44704 0,0.18573 -0.0475,0.34339 -0.0454,0.15765 -0.14254,0.31098 -0.0972,0.15118 -0.25916,0.31963 -0.15981,0.16845 -0.6846,0.63926 v 0.0216 h 1.19428 z m 2.20284,0 h -0.86602 v -1.67157 q 0,-0.30451 0.013,-0.55719 -0.0799,0.0972 -0.19869,0.20301 l -0.3585,0.29587 -0.44273,-0.54423 1.08414,-0.88329 h 0.76884 z"
         id="text1"
         inkscape:label="Author"
         aria-label="AmethystHeart2421" />
    </g>
    <g
       id="g1">
      <g
         id="g3"
         inkscape:label="spine-title"
         transform="matrix(0.99999797,0,0,0.99999797,-394.98149,-52.031733)"
         style="fill:none;stroke:#000000;stroke-width:0.1;stroke-dasharray:none;stroke-opacity:1">
        <path
           style="font-weight:bold;font-size:16.0571px;font-family:Quantico;-inkscape-font-specification:'Quantico, Bold';stroke-width:0.219705;stroke-linejoin:round"
           d="m 177.03724,21.677728 v 2.890278 h 4.47993 v 1.926852 h -6.72792 v -11.23997 h 6.72792 v 1.926852 h -4.47993 v 2.569136 h 3.51651 v 1.926852 z m 13.55219,-2.21588 v 7.03301 h -2.19982 v -6.230155 h -2.74577 v 6.230155 h -2.19982 v -8.108836 h 1.81445 l 0.38537,0.658341 1.14006,-0.658341 h 1.94291 z m 2.08741,9.24889 v -1.123997 l 1.86263,-1.091883 -1.54149,-0.899198 v -1.445139 l 1.14006,-0.658341 -1.14006,-0.658341 v -3.291706 l 1.86263,-1.075825 h 5.44335 v 1.027654 l -1.46119,0.851026 0.97948,0.578056 v 1.734167 l -1.86262,1.075826 h -2.76182 v 1.043711 h 3.24353 l 1.86262,1.075826 v 2.858164 l -1.86262,1.075825 h -3.90187 z m 5.4273,-2.21588 h -3.22748 v 1.445139 h 3.22748 z m -2.90633,-6.230155 v 1.669938 h 2.42462 v -1.669938 z m 12.15521,0.08028 h -2.76182 v 6.14987 h -2.19983 v -8.02855 h 1.81445 l 0.38538,0.658341 1.14005,-0.658341 h 1.62177 z m 3.4844,2.986621 v 1.396968 h 2.26405 v -1.396968 z m -0.3372,3.243534 -1.86263,-1.075825 v -2.777879 l 1.86263,-1.075826 h 2.60125 v -1.300625 h -3.66102 v -1.87868 h 3.99822 l 1.86262,1.075825 v 7.03301 h -1.05977 l -1.14005,-0.658341 -1.14006,0.658341 z m 18.49777,-7.113295 v 7.03301 h -2.19982 v -6.230155 h -2.34434 v 6.230155 h -2.19982 v -6.230155 h -2.34434 v 6.230155 h -2.19982 v -8.108836 h 1.81445 l 0.38537,0.658341 1.14006,-0.658341 h 1.54148 l 1.49331,0.867084 1.50937,-0.867084 h 1.54148 z m 8.76719,3.082963 v 2.874221 l -1.86262,1.075826 h -4.49599 v -1.878681 h 4.15879 V 23.37978 h -2.29616 l -1.86263,-1.075825 v -2.761822 l 1.86263,-1.075825 h 4.33541 v 1.87868 h -3.99822 v 1.123997 h 2.29617 z"
           id="text4-5"
           transform="matrix(0,0.45515636,-0.45515636,0,389.83245,62.873574)"
           aria-label="Engrams " />
        <path
           style="font-weight:900;font-size:12.6163px;font-family:Sans;-inkscape-font-specification:'Sans, Heavy';stroke-width:0.219705;stroke-linejoin:round"
           d="m 247.53038,20.14886 q 1.32471,0 2.06908,0.656048 0.74436,0.656047 0.74436,1.867212 v 4.579717 h -1.66535 l -0.46681,-0.92099 h -0.0505 q -0.29018,0.365873 -0.60559,0.605582 -0.30279,0.227094 -0.70651,0.328024 -0.40372,0.113547 -0.98407,0.113547 -0.90837,0 -1.51396,-0.555117 -0.60558,-0.555118 -0.60558,-1.703201 0,-1.122851 0.7696,-1.665351 0.78221,-0.542501 2.25831,-0.605583 l 1.1607,-0.03785 v -0.10093 q 0,-0.466803 -0.22709,-0.656048 -0.22709,-0.20186 -0.6182,-0.20186 -0.41634,0 -0.92099,0.151395 -0.50465,0.138779 -1.02192,0.365873 l -0.69389,-1.589654 q 0.60558,-0.315407 1.36256,-0.466803 0.76959,-0.164012 1.71581,-0.164012 z m -0.13878,4.011983 q -0.65604,0.02523 -0.9336,0.23971 -0.26495,0.201861 -0.26495,0.58035 0,0.353256 0.18925,0.529884 0.18924,0.164012 0.50465,0.164012 0.44157,0 0.74436,-0.277558 0.31541,-0.277559 0.31541,-0.719129 v -0.542501 z m 8.95757,-4.011983 q 1.085,0 1.76628,0.605582 0.68128,0.605583 0.68128,1.955527 v 4.541868 h -2.40972 v -3.810123 q 0,-0.693896 -0.20186,-1.047153 -0.20186,-0.353256 -0.64343,-0.353256 -0.68128,0 -0.92099,0.555117 -0.22709,0.555117 -0.22709,1.60227 v 3.053145 h -2.40971 v -6.976814 h 1.81674 l 0.32803,0.92099 h 0.0883 q 0.32802,-0.492036 0.85791,-0.769594 0.5425,-0.277559 1.27425,-0.277559 z m 6.25768,7.22914 q -1.07238,0 -1.7789,-0.92099 -0.69389,-0.92099 -0.69389,-2.687272 0,-1.791514 0.70651,-2.699888 0.71913,-0.92099 1.8546,-0.92099 0.70651,0 1.12285,0.290175 0.42895,0.290175 0.70651,0.731745 h 0.0505 q -0.0505,-0.264942 -0.0883,-0.731745 -0.0252,-0.466803 -0.0252,-0.908374 v -1.867212 h 2.42233 v 9.588388 h -1.81675 l -0.51727,-0.883141 h -0.0883 q -0.25233,0.416338 -0.6939,0.719129 -0.44157,0.290175 -1.1607,0.290175 z m 0.98407,-1.905061 q 0.58035,0 0.82006,-0.365873 0.23971,-0.365873 0.25233,-1.122851 v -0.189244 q 0,-0.82006 -0.23971,-1.26163 -0.2271,-0.441571 -0.85791,-0.441571 -0.42895,0 -0.71913,0.416338 -0.27756,0.416338 -0.27756,1.299479 0,0.870525 0.27756,1.274246 0.29018,0.391106 0.74436,0.391106 z"
           id="text5-6"
           transform="matrix(0,0.45515636,-0.45515636,0,389.83245,62.873574)"
           aria-label="and" />
        <path
           style="font-size:16.0571px;font-family:'Moon Dance';-inkscape-font-specification:'Moon Dance';stroke-width:0.183052;stroke-linejoin:round"
           d="m 298.10671,139.16927 q -0.24086,0 -0.24086,-0.27297 0,-0.14451 0.0963,-0.46566 0.1124,-0.32114 0.2248,-0.64228 0.12846,-0.32114 0.19269,-0.46566 0.12845,-0.33719 0.4496,-1.05976 0.32114,-0.73863 0.73862,-1.686 0.41749,-0.94737 0.86709,-1.94291 0.4496,-1.0116 0.85102,-1.89474 0.41749,-0.88314 0.72257,-1.46119 v -0.1124 q 0,-0.32114 0.35326,-0.32114 0.24086,0 0.41748,0.17662 0.0321,0.0321 0.0321,0.14452 0,0.1124 0,0.14451 0,0.16057 -0.0161,0.32114 -0.0161,0.14452 -0.0321,0.28903 -0.0803,0.93131 -0.14452,1.81445 -0.0482,0.86709 -0.0482,1.63783 0,1.62177 0.25691,2.64942 0.27298,1.0116 0.86709,1.0116 0.28903,0 0.65834,-0.35326 0.38537,-0.36931 0.7868,-0.96343 0.41748,-0.61017 0.83497,-1.30062 0.41748,-0.70651 0.77074,-1.39697 0.36931,-0.69045 0.62622,-1.23639 0.27298,-0.562 0.40143,-0.85103 l 0.4496,-1.0116 q 0.24086,-0.54594 0.3372,-0.81891 0.0963,-0.28903 0.2248,-0.40143 0.12846,-0.1124 0.46566,-0.1124 h 0.0642 q 0.1124,0 0.20875,0.0321 0.0963,0.016 0.0642,0.12845 -0.33719,0.8992 -0.59411,2.00714 -0.24086,1.09188 -0.38537,2.24799 -0.12846,1.15612 -0.12846,2.26406 0,0.83497 0.0803,1.60571 0.0963,0.77074 0.28903,1.38091 0.0161,0.0482 0.0161,0.12845 0,0.16057 -0.12845,0.2248 -0.1124,0.0642 -0.24086,0.0642 -0.14451,0 -0.28903,-0.20874 -0.14451,-0.20874 -0.2248,-0.61017 -0.0642,-0.30509 -0.1124,-0.97948 -0.0482,-0.6744 -0.0482,-1.686 0,-2.05531 0.41749,-4.06245 -0.64229,1.30063 -1.30063,2.48885 -0.65834,1.18823 -1.30062,2.10348 -0.62623,0.91526 -1.22034,1.44514 -0.57806,0.52989 -1.10794,0.52989 -0.51383,0 -0.83497,-0.65834 -0.30509,-0.65834 -0.4496,-1.73417 -0.14451,-1.07583 -0.14451,-2.31222 0,-0.73863 0.0482,-1.49331 0.0482,-0.75469 0.12845,-1.44514 -0.16057,0.38537 -0.51382,1.18822 -0.3372,0.80286 -0.7868,1.83051 -0.43354,1.02766 -0.8992,2.11954 -0.4496,1.09188 -0.83497,2.07137 -0.38537,0.96342 -0.61017,1.65388 -0.0642,0.25691 -0.30508,0.25691 z m 13.55218,-0.51383 q -0.59411,0 -0.80285,-0.3372 -0.20874,-0.35325 -0.20874,-0.89919 0,-0.57806 0.17663,-1.10794 0.17662,-0.52989 0.38537,-1.05977 -0.1124,-0.0803 -0.20875,-0.20874 -0.0803,-0.12846 -0.0803,-0.36932 0,-0.27297 0.32114,-0.69045 0.32114,-0.43354 0.72257,-0.75469 0.17663,-0.14451 0.46566,-0.30508 0.28902,-0.17663 0.59411,-0.28903 0.30508,-0.12846 0.49777,-0.12846 0.6744,0 0.8992,0.54595 0.2248,0.54594 0.16057,1.30062 0.0642,-0.0321 0.2248,-0.0963 0.17662,-0.0642 0.3372,-0.1124 0.16057,-0.0642 0.19268,-0.0642 0.0803,0 0.16057,0.0803 0.0803,0.0803 0.0803,0.16057 0,0.0482 -0.0482,0.0803 l -1.0116,0.38537 q -0.0963,0.49777 -0.32114,1.15611 -0.20875,0.65835 -0.57806,1.28457 -0.35326,0.61017 -0.85103,1.02766 -0.48171,0.40142 -1.10794,0.40142 z m 0.77075,-3.77341 q 0.40142,0 0.77074,-0.0803 0.36931,-0.0963 0.80285,-0.24086 0.0161,-0.0803 0.0161,-0.17662 0.0161,-0.0964 0.0161,-0.17663 0,-0.19269 -0.0482,-0.43354 -0.0321,-0.24086 -0.16057,-0.41749 -0.1124,-0.19268 -0.35325,-0.19268 -0.27297,0 -0.52989,0.20874 -0.25691,0.20874 -0.48171,0.49777 -0.20874,0.28903 -0.36931,0.562 -0.14452,0.27297 -0.20875,0.40142 0.28903,0.0482 0.54595,0.0482 z m -0.62623,3.33987 q 0.4496,0 0.7868,-0.28903 0.35325,-0.30508 0.61017,-0.78679 0.25691,-0.48172 0.43354,-1.04371 0.19268,-0.562 0.30508,-1.10794 -0.48171,0.16057 -1.10794,0.32114 -0.61017,0.14451 -1.12399,0.0803 -0.16057,0.43354 -0.28903,0.97949 -0.1124,0.54594 -0.1124,1.01159 0,0.25692 0.0803,0.54594 0.0964,0.28903 0.41749,0.28903 z m 4.75291,0.43354 q -0.59412,0 -0.80286,-0.3372 -0.20874,-0.35325 -0.20874,-0.89919 0,-0.57806 0.17663,-1.10794 0.17662,-0.52989 0.38537,-1.05977 -0.1124,-0.0803 -0.20875,-0.20874 -0.0803,-0.12846 -0.0803,-0.36932 0,-0.27297 0.32114,-0.69045 0.32114,-0.43354 0.72257,-0.75469 0.17663,-0.14451 0.46566,-0.30508 0.28902,-0.17663 0.59411,-0.28903 0.30508,-0.12846 0.49777,-0.12846 0.6744,0 0.8992,0.54595 0.2248,0.54594 0.16057,1.30062 0.0642,-0.0321 0.2248,-0.0963 0.17663,-0.0642 0.3372,-0.1124 0.16057,-0.0642 0.19268,-0.0642 0.0803,0 0.16057,0.0803 0.0803,0.0803 0.0803,0.16057 0,0.0482 -0.0482,0.0803 l -1.0116,0.38537 q -0.0963,0.49777 -0.32114,1.15611 -0.20874,0.65835 -0.57806,1.28457 -0.35325,0.61017 -0.85102,1.02766 -0.48172,0.40142 -1.10794,0.40142 z m 0.77074,-3.77341 q 0.40142,0 0.77074,-0.0803 0.36931,-0.0963 0.80285,-0.24086 0.0161,-0.0803 0.0161,-0.17662 0.0161,-0.0964 0.0161,-0.17663 0,-0.19269 -0.0482,-0.43354 -0.0321,-0.24086 -0.16058,-0.41749 -0.1124,-0.19268 -0.35325,-0.19268 -0.27297,0 -0.52989,0.20874 -0.25691,0.20874 -0.48171,0.49777 -0.20874,0.28903 -0.36931,0.562 -0.14452,0.27297 -0.20874,0.40142 0.28902,0.0482 0.54594,0.0482 z m -0.62623,3.33987 q 0.4496,0 0.7868,-0.28903 0.35325,-0.30508 0.61017,-0.78679 0.25691,-0.48172 0.43354,-1.04371 0.19268,-0.562 0.30508,-1.10794 -0.48171,0.16057 -1.10794,0.32114 -0.61017,0.14451 -1.12399,0.0803 -0.16057,0.43354 -0.28903,0.97949 -0.1124,0.54594 -0.1124,1.01159 0,0.25692 0.0803,0.54594 0.0963,0.28903 0.41748,0.28903 z m 3.50045,0.562 q -0.12845,0 -0.12845,-0.0963 l 0.20874,-0.61017 q 0.0803,-0.20874 0.0963,-0.40143 0.0321,-0.20874 0.0963,-0.41748 0.0964,-0.41749 0.20875,-0.83497 0.1124,-0.41749 0.24085,-0.81892 0.0482,-0.14451 0.12846,-0.41748 0.0803,-0.27297 0.14451,-0.54594 0.0803,-0.28903 0.0803,-0.43354 0,-0.0803 -0.1124,-0.0642 -0.0963,0.0161 -0.1124,-0.0321 0.1124,-0.28902 0.19268,-0.59411 0.0803,-0.30508 0.19269,-0.59411 0.0482,-0.12846 0.25691,-0.24086 0.20875,-0.12845 0.3372,-0.12845 0.2248,0 0.2248,0.28902 0,0.25692 -0.12846,0.7868 -0.12845,0.52989 -0.33719,1.15611 -0.19269,0.62623 -0.38537,1.22034 -0.17663,0.57806 -0.30509,0.94737 0.51383,-0.48171 1.02765,-1.05977 0.51383,-0.57805 0.93132,-1.15611 0.43354,-0.59411 0.67439,-1.07582 0,-0.17663 0.2248,-0.24086 0.24086,-0.0642 0.36932,-0.0321 0.0642,-0.0321 0.0963,-0.0321 0.14451,0 0.17663,0.2248 0.0482,0.20874 0.0482,0.30509 0,0.17662 -0.0482,0.49777 -0.0321,0.30508 -0.2248,0.40142 -0.0161,0.12846 -0.0161,0.27297 0,0.12846 0,0.25692 0,0.19268 0.0161,0.64228 0.0321,0.43354 0.1124,0.91526 0.0803,0.48171 0.25691,0.83497 0.17663,0.33719 0.48172,0.33719 0.28902,0 0.49777,-0.16057 0.22479,-0.16057 0.38537,-0.36931 0.16057,-0.20874 0.25691,-0.36931 0.0963,-0.16057 0.14451,-0.16057 0.0803,0 0.0803,0.0963 0,0.2248 -0.24086,0.54594 -0.2248,0.32114 -0.38537,0.48171 -0.17663,0.19269 -0.41748,0.3372 -0.24086,0.14452 -0.51383,0.14452 -0.48171,0 -0.75468,-0.3372 -0.27297,-0.35326 -0.41749,-0.85103 -0.12846,-0.51383 -0.17663,-1.02765 -0.0321,-0.52989 -0.0321,-0.86709 0,-0.30508 0,-0.59411 0.0161,-0.28903 0.0321,-0.57806 -0.25691,0.4496 -0.59411,0.86709 -0.3372,0.41748 -0.65834,0.81891 -0.48171,0.54594 -0.94737,1.18823 -0.0803,0.11239 -0.16057,0.27297 -0.0642,0.14451 -0.17663,0.25691 l -0.0321,0.0321 q -0.1124,0.30509 -0.14452,0.46566 -0.0321,0.16057 -0.32114,0.35326 -0.0963,0.0642 -0.20874,0.12845 -0.1124,0.0642 -0.24086,0.0642 z m 6.58342,-0.25691 q -0.25692,0 -0.32115,-0.17663 -0.0482,-0.17663 -0.0482,-0.38537 0,-0.16057 0.0803,-0.43354 0.0803,-0.27297 0.16057,-0.54594 0.0963,-0.28903 0.14451,-0.43355 0.0321,-0.0963 0.14452,-0.41748 0.1124,-0.32114 0.2248,-0.64228 0.1124,-0.32115 0.1124,-0.40143 -0.0161,0 -0.0321,0.0161 -0.0161,0 -0.0482,0 -0.14451,0 -0.14451,-0.19268 0,-0.17663 0.0482,-0.36931 0.0482,-0.20875 0.1124,-0.36932 0.0803,-0.17663 0.1124,-0.3372 0.0482,-0.17662 0.0803,-0.35325 0.0321,-0.12846 0.19269,-0.19269 0.16057,-0.0642 0.35325,-0.0803 0.20875,-0.0321 0.30509,-0.0321 0.0803,0 0.17663,0.0321 0.1124,0.0161 0.1124,0.12845 0,0.0321 -0.0321,0.12846 -0.0321,0.0803 -0.0482,0.1124 -0.2248,0.54594 -0.51383,1.15611 -0.27297,0.59411 -0.48171,1.22034 -0.19268,0.61017 -0.19268,1.22034 0,0.1124 0.0321,0.3372 0.0482,0.20874 0.2248,0.20874 0.17663,0 0.38537,-0.19268 0.2248,-0.19269 0.3372,-0.30509 0.65834,-0.6744 1.17217,-1.46119 0.51383,-0.7868 0.80285,-1.686 0.0321,-0.1124 0.14452,-0.36931 0.1124,-0.27297 0.27297,-0.27297 0.16057,0 0.32114,0.0161 0.16057,0.0161 0.32114,0.0482 -0.4496,0.83497 -0.64228,1.73417 -0.19269,0.8992 -0.19269,1.84657 0,0.17663 0.0482,0.41748 0.0642,0.24086 0.30509,0.24086 0.28903,0 0.59411,-0.25691 0.30509,-0.27297 0.48171,-0.46566 0.36932,-0.40143 0.73863,-1.0116 0.38537,-0.61017 0.64229,-1.26851 0.25691,-0.65834 0.25691,-1.20428 0,-0.35326 -0.1124,-0.562 -0.1124,-0.20874 -0.1124,-0.36931 0,-0.16057 0.0803,-0.3372 0.0963,-0.17663 0.28903,-0.17663 0.20874,0 0.32114,0.32114 0.12846,0.30509 0.12846,0.69046 0,0.91525 -0.46565,1.83051 -0.4496,0.89919 -0.97949,1.60571 -0.24085,0.3372 -0.64228,0.80285 -0.40143,0.46566 -0.88314,0.81891 -0.46566,0.35326 -0.94737,0.35326 -0.3372,0 -0.41749,-0.27297 -0.0642,-0.28903 -0.0642,-0.562 0,-1.07582 0.19268,-2.15165 -0.46565,0.77074 -1.124,1.58965 -0.65834,0.80286 -1.47725,1.2364 -0.1124,0.0642 -0.25691,0.12846 -0.14452,0.0482 -0.27297,0.0482 z m 11.70563,0.0803 q -0.4496,0 -0.6744,-0.32114 -0.2248,-0.32114 -0.30509,-0.73863 -0.0642,-0.43354 -0.0642,-0.77074 0,-0.3372 0.0321,-0.65834 0.0482,-0.3372 0.0963,-0.65834 -0.16057,0.20874 -0.4496,0.59411 -0.28902,0.36932 -0.65834,0.81892 -0.36931,0.43354 -0.75468,0.83497 -0.38537,0.38537 -0.75469,0.64228 -0.35325,0.24086 -0.61017,0.24086 -0.22479,0 -0.28902,-0.20875 -0.0482,-0.20874 -0.0482,-0.36931 0,-0.72257 0.28902,-1.52542 0.28903,-0.80286 0.59412,-1.44514 0.0803,-0.17663 0.24085,-0.48172 0.16057,-0.30508 0.36932,-0.62622 0.2248,-0.32115 0.46565,-0.52989 0.24086,-0.20874 0.48171,-0.17663 0.17663,-0.1124 0.3372,-0.19268 0.17663,-0.0963 0.38537,-0.0963 0.12846,0 0.41749,0.0803 0.30508,0.0803 0.43354,0.1124 0.0642,-0.12846 0.19269,-0.19268 0.12845,-0.0642 0.25691,-0.0642 0.12846,0 0.17663,0.0161 0.0642,-0.0321 0.0963,-0.0321 0.0963,0 0.12846,0.14451 0.0321,0.12846 0.0321,0.20875 0,0.20874 -0.0482,0.36931 -0.0482,0.16057 -0.12846,0.35326 -0.0642,0.16057 -0.1124,0.30508 -0.0321,0.12846 -0.17662,0.24086 -0.1124,0.57805 -0.17663,1.17217 -0.0482,0.57805 -0.0482,1.17216 0,0.20875 0.0161,0.49777 0.0321,0.28903 0.14452,0.51383 0.12845,0.2248 0.38537,0.2248 0.40142,0 0.70651,-0.28903 0.32114,-0.30508 0.52988,-0.57805 0.0321,-0.0482 0.0803,-0.0963 0.0482,-0.0642 0.1124,-0.0964 l 0.0482,0.0964 q 0,0.16057 -0.16057,0.38537 -0.16057,0.2248 -0.35326,0.43354 -0.19268,0.19268 -0.32114,0.28903 -0.19268,0.16057 -0.43354,0.28902 -0.2248,0.1124 -0.48171,0.1124 z m -3.59679,-0.6744 q 0.0963,0 0.20874,-0.0803 0.1124,-0.0803 0.17663,-0.14451 0.75468,-0.65835 1.33274,-1.47726 0.59411,-0.81891 1.02765,-1.70205 0.0482,-0.0803 0.0963,-0.17663 0.0482,-0.0963 0.0642,-0.19268 0.0321,-0.12846 0.0642,-0.27297 0.0321,-0.16058 0.0482,-0.28903 -0.0161,-0.0803 -0.17663,-0.14452 -0.16057,-0.0642 -0.35325,-0.0963 -0.17663,-0.0482 -0.25692,-0.0482 -0.30508,0 -0.54594,0.25691 -0.2248,0.24086 -0.38537,0.46566 -0.19268,0.28903 -0.4496,0.75468 -0.24085,0.46566 -0.48171,0.99554 -0.2248,0.51383 -0.38537,0.99554 -0.14451,0.48172 -0.14451,0.81892 0,0.0803 0.016,0.20874 0.0321,0.12845 0.14452,0.12845 z m 5.41125,0.54595 q -0.14451,0 -0.25691,-0.0803 -0.0963,-0.0803 -0.0963,-0.24086 0,-0.2248 0.0321,-0.56199 0.0321,-0.3372 0.0642,-0.57806 0.12846,-0.77074 0.28903,-1.54148 0.17663,-0.7868 0.38537,-1.54148 0.19268,-0.73863 0.4496,-1.55754 0.25691,-0.83497 0.62622,-1.62177 0.36932,-0.7868 0.8992,-1.41302 0.54594,-0.64229 1.30063,-0.97949 0.19268,-0.0803 0.40143,-0.12845 0.20874,-0.0642 0.41748,-0.0642 0.19269,0 0.4496,0.0803 0.27297,0.0803 0.46565,0.24086 0.19269,0.14451 0.19269,0.38537 0,0.0963 -0.0482,0.14451 -0.0321,0.0482 -0.25692,0.20875 -0.20874,0.14451 -0.24085,0.16057 -0.0321,-0.0321 -0.0321,-0.0482 0,-0.0482 0.0482,-0.0964 0.0482,-0.0482 0.0482,-0.1124 0,-0.16057 -0.17663,-0.28902 -0.17663,-0.14452 -0.40143,-0.2248 -0.2248,-0.0964 -0.36931,-0.0964 -0.52989,0 -0.97949,0.4496 -0.43354,0.4496 -0.78679,1.15611 -0.35326,0.69046 -0.62623,1.47726 -0.27297,0.77074 -0.46566,1.46119 -0.19268,0.69046 -0.30508,1.10794 -0.12846,0.46566 -0.27297,1.04371 -0.14452,0.57806 -0.25692,1.17217 -0.0963,0.57806 -0.0963,1.07583 0,0.14451 0.0482,0.30508 0.0642,0.14452 0.24086,0.14452 0.24086,0 0.49777,-0.16057 0.27297,-0.16057 0.51383,-0.36932 0.25691,-0.2248 0.43354,-0.38537 0.19268,-0.16057 0.25691,-0.16057 0.0321,0 0.0321,0.0321 0,0.1124 -0.0642,0.2248 -0.0642,0.1124 -0.14452,0.19268 -0.20874,0.20874 -0.59411,0.49777 -0.38537,0.27297 -0.81891,0.48171 -0.43354,0.20875 -0.80286,0.20875 z m 2.45674,0.32114 q -0.14451,0 -0.14451,-0.1124 l 0.20874,-0.61017 q 0.0803,-0.2248 0.1124,-0.4496 0.0321,-0.2248 0.0963,-0.4496 0.1124,-0.46566 0.2248,-0.91525 0.1124,-0.4496 0.24086,-0.8992 -0.0321,-0.0803 -0.16058,-0.32114 -0.12845,-0.24086 -0.12845,-0.32115 0,-0.35325 0.36931,-0.35325 0.1124,0 0.17663,0.0482 0.20874,-0.77074 0.46566,-1.66994 0.25691,-0.8992 0.62622,-1.76628 0.36932,-0.86708 0.93131,-1.55754 0.562,-0.69045 1.36486,-1.05977 0.19268,-0.0803 0.40143,-0.12845 0.20874,-0.0642 0.41748,-0.0642 0.19269,0 0.4496,0.0803 0.27297,0.0803 0.46565,0.24086 0.19269,0.14451 0.19269,0.38537 0,0.0963 -0.0482,0.14451 -0.0161,0.0161 -0.12846,0.1124 -0.1124,0.0803 -0.2248,0.16057 -0.1124,0.0803 -0.14451,0.0964 -0.0321,-0.0321 -0.0321,-0.0482 0,-0.0482 0.0482,-0.0964 0.0482,-0.0482 0.0482,-0.1124 0,-0.16057 -0.17663,-0.28902 -0.17663,-0.14452 -0.40143,-0.2248 -0.2248,-0.0964 -0.36931,-0.0964 -0.48172,0 -0.8992,0.38537 -0.41748,0.36932 -0.77074,0.99554 -0.3372,0.61017 -0.62623,1.3488 -0.28903,0.73863 -0.51382,1.47725 -0.20875,0.73863 -0.36932,1.36486 -0.16057,0.61017 -0.25691,0.96342 0.0321,0.1124 0.0482,0.19269 0.0321,0.0803 0.0321,0.0803 0.51383,-0.65834 1.18823,-1.31668 0.69045,-0.65834 1.38091,-1.14005 0.12846,-0.0803 0.32114,-0.0803 0.1124,0 0.24086,0.0482 0.14451,0.0321 0.14451,0.17663 0,0.12846 -0.19268,0.30509 -0.19269,0.17662 -0.43354,0.32114 -0.2248,0.14451 -0.32115,0.20874 -0.54594,0.36931 -1.14005,0.81891 -0.59411,0.4496 -1.05977,0.8992 0.16057,0.28903 0.43354,0.70651 0.27297,0.40143 0.57806,0.80286 0.32114,0.38537 0.62622,0.65834 0.32115,0.25691 0.57806,0.25691 0.24086,0 0.36931,-0.19268 0.14452,-0.19269 0.20875,-0.43354 0.0803,-0.25692 0.1124,-0.43355 0.0161,-0.0321 0.0321,-0.14451 0.0321,-0.12846 0.0963,-0.12846 0.0803,0 0.0964,0.0642 0.0321,0.0642 0.0321,0.12846 0,0.0321 -0.0161,0.0642 0,0.0321 0,0.0642 -0.0321,0.30508 -0.0803,0.69045 -0.0321,0.38537 -0.27297,0.62623 -0.27297,0.27297 -0.62623,0.27297 -0.35326,0 -0.73863,-0.24086 -0.36931,-0.25691 -0.72257,-0.64228 -0.3372,-0.40143 -0.61017,-0.83497 -0.27297,-0.4496 -0.4496,-0.81891 -0.0803,0.19268 -0.19268,0.48171 -0.0963,0.28903 -0.17663,0.57806 -0.0803,0.27297 -0.1124,0.41748 0.0642,0.1124 0.0642,0.27297 0,0.28903 -0.0963,0.49777 -0.0964,0.19269 -0.3372,0.3372 -0.0963,0.0642 -0.20874,0.1124 -0.1124,0.0642 -0.24086,0.0642 z m 5.87691,-0.20874 q -0.28903,0 -0.28903,-0.24086 0,-0.19269 0.25691,-0.32114 0.27297,-0.14452 0.64229,-0.24086 0.38537,-0.0963 0.72257,-0.14451 0.3372,-0.0482 0.48171,-0.0642 0.0803,-0.0803 0.12846,-0.17663 0.0482,-0.1124 0.0482,-0.2248 0,-0.12846 -0.0803,-0.20874 -0.0642,-0.0963 -0.17663,-0.16057 -0.28902,-0.17663 -0.72256,-0.46566 -0.43355,-0.28903 -0.77075,-0.64228 -0.32114,-0.36932 -0.32114,-0.75469 0,-0.2248 0.1124,-0.35325 0.28903,-0.36932 0.73863,-0.81891 0.46565,-0.46566 0.99554,-0.7868 0.54594,-0.3372 1.04371,-0.3372 0.4496,0 0.54594,0.14451 0.0963,0.14452 0.0963,0.54594 0,0.27297 -0.0963,0.61017 -0.0963,0.32115 -0.40143,0.4496 h -0.0321 q -0.0482,0 -0.0642,-0.14451 0,-0.16057 0,-0.28903 0,-0.0963 0,-0.28903 0,-0.19268 -0.0803,-0.35325 -0.0803,-0.17663 -0.30509,-0.17663 -0.2248,0 -0.52988,0.14451 -0.30509,0.12846 -0.61017,0.36932 -0.28903,0.2248 -0.48172,0.48171 -0.19268,0.25691 -0.19268,0.49777 0,0.40143 0.28903,0.6744 0.30508,0.27297 0.70651,0.48171 0.40143,0.20874 0.69045,0.43354 0.30509,0.2248 0.30509,0.52989 0,0.2248 -0.1124,0.43354 -0.1124,0.19268 -0.25691,0.35325 0.16057,-0.0161 0.32114,-0.0161 0.17663,-0.0161 0.3372,-0.0161 0.14451,0 0.14451,0.0803 0,0.0803 -0.0482,0.1124 -0.0482,0.0161 -0.12846,0.0321 -0.24085,0.0321 -0.49777,0.0642 -0.24085,0.0321 -0.48171,0.0803 -0.4496,0.40143 -0.88314,0.562 -0.43354,0.14452 -1.04371,0.14452 z"
           id="text7-0"
           transform="matrix(0,0.54629359,-0.54629359,0,452.6368,24.54405)"
           aria-label="Moonwalks" />
      </g>
      <path
         style="font-weight:800;font-size:4.78265px;font-family:'Open Sans';-inkscape-font-specification:'Open Sans, Ultra-Bold';fill:none;stroke:#000000;stroke-width:0.1;stroke-linejoin:round"
         d="M 20.700697,16.596537 20.532557,15.95667 H 19.4233 l -0.172811,0.639867 h -1.01351 l 1.113927,-3.428189 h 1.230692 l 1.127939,3.428189 z M 20.341064,15.20004 20.193942,14.639573 q -0.05138,-0.186822 -0.126105,-0.483402 -0.07239,-0.296581 -0.09575,-0.425021 -0.02102,0.119099 -0.08407,0.392327 -0.06072,0.273227 -0.273227,1.076563 z m 4.932108,1.396497 v -1.438532 q 0,-0.268557 -0.07473,-0.401668 -0.07239,-0.135446 -0.231192,-0.135446 -0.210175,0 -0.308257,0.179817 -0.09808,0.179816 -0.09808,0.562802 v 1.233027 h -0.915429 v -1.438532 q 0,-0.268557 -0.07006,-0.401668 -0.07006,-0.135446 -0.226522,-0.135446 -0.214846,0 -0.312927,0.191493 -0.09808,0.191493 -0.09808,0.625855 v 1.158298 H 22.0248 v -2.645871 h 0.688907 l 0.114429,0.326939 h 0.05371 q 0.105088,-0.182151 0.303586,-0.277898 0.200834,-0.09575 0.45538,-0.09575 0.572143,0 0.803335,0.347956 h 0.07239 q 0.112093,-0.163469 0.310592,-0.254545 0.200834,-0.09341 0.441368,-0.09341 0.469391,0 0.693577,0.240533 0.224187,0.240534 0.224187,0.730943 v 1.7211 z m 2.811675,0.0467 q -0.660883,0 -1.027522,-0.350292 -0.364304,-0.352627 -0.364304,-1.001834 0,-0.670225 0.338616,-1.027522 0.338615,-0.359633 0.966805,-0.359633 0.597831,0 0.922435,0.312927 0.326939,0.310592 0.326939,0.896747 v 0.406338 h -1.63236 q 0.0093,0.221852 0.161135,0.347957 0.154128,0.126105 0.418014,0.126105 0.240534,0 0.441368,-0.04437 0.203169,-0.04671 0.439032,-0.156464 v 0.656213 q -0.214845,0.109758 -0.443703,0.151793 -0.228857,0.04204 -0.546455,0.04204 z m -0.05371,-2.118097 q -0.161134,0 -0.270892,0.102752 -0.107423,0.100417 -0.126105,0.317598 h 0.784653 q -0.0047,-0.191493 -0.109758,-0.305922 -0.102752,-0.114428 -0.277898,-0.114428 z m 3.028856,1.396496 q 0.184487,0 0.441368,-0.09108 v 0.665555 q -0.184487,0.0794 -0.352627,0.112093 -0.165805,0.03503 -0.389992,0.03503 -0.460049,0 -0.663219,-0.224187 -0.203169,-0.226522 -0.203169,-0.693577 V 14.634903 H 29.57242 v -0.371309 l 0.406339,-0.28724 0.235863,-0.555796 h 0.597831 v 0.530108 h 0.649207 v 0.684237 h -0.649207 v 1.029858 q 0,0.25688 0.247539,0.25688 z m 2.568806,0.674896 v -1.443202 q 0,-0.532444 -0.315262,-0.532444 -0.224187,0 -0.33161,0.189158 -0.105087,0.186822 -0.105087,0.623519 v 1.162969 h -0.913094 v -3.633693 h 0.913094 v 0.516096 q 0,0.350292 -0.03736,0.798665 h 0.04203 q 0.130776,-0.205504 0.310592,-0.289574 0.179817,-0.08407 0.418015,-0.08407 0.443703,0 0.688907,0.25688 0.24754,0.254546 0.24754,0.714596 v 1.7211 z m 1.219015,-2.645871 h 0.962135 l 0.448373,1.517931 q 0.03269,0.119099 0.04437,0.287239 h 0.01868 q 0.01868,-0.161134 0.05605,-0.282568 l 0.46005,-1.522602 h 0.931776 l -1.046204,2.814011 q -0.200834,0.537114 -0.495079,0.758965 -0.29191,0.221852 -0.763636,0.221852 -0.182152,0 -0.373645,-0.0397 v -0.716931 q 0.12377,0.02802 0.282569,0.02802 0.121434,0 0.21251,-0.04671 0.09108,-0.0467 0.158799,-0.133111 0.06772,-0.08407 0.144787,-0.277898 z m 5.280065,1.833194 q 0,0.42502 -0.289574,0.642201 -0.289575,0.217181 -0.831359,0.217181 -0.294246,0 -0.511426,-0.03269 -0.217181,-0.03036 -0.443703,-0.114428 v -0.730942 q 0.21251,0.09341 0.46472,0.154128 0.254545,0.06072 0.453044,0.06072 0.29658,0 0.29658,-0.135446 0,-0.07006 -0.08407,-0.12377 -0.08173,-0.05605 -0.481067,-0.214845 -0.364303,-0.149458 -0.509091,-0.338616 -0.144787,-0.191493 -0.144787,-0.483402 0,-0.368974 0.284904,-0.574479 0.284904,-0.205504 0.805671,-0.205504 0.261551,0 0.490409,0.05838 0.231192,0.05605 0.478732,0.165804 l -0.24754,0.588491 q -0.182152,-0.08174 -0.385321,-0.137782 -0.203169,-0.05838 -0.331609,-0.05838 -0.224187,0 -0.224187,0.109758 0,0.06772 0.07706,0.116764 0.0794,0.04671 0.453044,0.193828 0.277898,0.114429 0.413344,0.224187 0.137782,0.109758 0.200834,0.259216 0.06539,0.147122 0.06539,0.359633 z m 1.802834,0.137781 q 0.184487,0 0.441368,-0.09108 v 0.665555 q -0.184487,0.0794 -0.352627,0.112093 -0.165805,0.03503 -0.389992,0.03503 -0.460049,0 -0.663219,-0.224187 -0.203169,-0.226522 -0.203169,-0.693577 V 14.634903 H 40.44314 v -0.371309 l 0.406338,-0.28724 0.235864,-0.555796 h 0.597831 v 0.530108 h 0.649207 v 0.684237 h -0.649207 v 1.029858 q 0,0.25688 0.247539,0.25688 z m 3.883569,0.674896 h -0.927106 v -1.391826 h -1.071892 v 1.391826 H 42.888177 V 13.18236 h 0.927106 v 1.265721 h 1.071892 V 13.18236 h 0.927106 z m 1.961633,0.0467 q -0.660884,0 -1.027522,-0.350292 -0.364304,-0.352627 -0.364304,-1.001834 0,-0.670225 0.338616,-1.027522 0.338615,-0.359633 0.966805,-0.359633 0.597831,0 0.922435,0.312927 0.326939,0.310592 0.326939,0.896747 v 0.406338 h -1.63236 q 0.0093,0.221852 0.161134,0.347957 0.154129,0.126105 0.418015,0.126105 0.240534,0 0.441368,-0.04437 0.203169,-0.04671 0.439032,-0.156464 v 0.656213 q -0.214846,0.109758 -0.443703,0.151793 -0.228857,0.04204 -0.546455,0.04204 z m -0.05371,-2.118097 q -0.161135,0 -0.270893,0.102752 -0.107422,0.100417 -0.126105,0.317598 h 0.784654 q -0.0047,-0.191493 -0.109758,-0.305922 -0.102752,-0.114428 -0.277898,-0.114428 z m 3.458547,2.071392 -0.175146,-0.350292 h -0.01868 q -0.184487,0.228857 -0.37598,0.312927 -0.191492,0.08407 -0.495079,0.08407 -0.373644,0 -0.58849,-0.224187 -0.214845,-0.224186 -0.214845,-0.630525 0,-0.422685 0.294245,-0.62819 0.294245,-0.207839 0.852376,-0.233527 l 0.441368,-0.01401 v -0.03736 q 0,-0.326939 -0.322268,-0.326939 -0.289575,0 -0.735613,0.196163 l -0.263887,-0.602502 q 0.462386,-0.238198 1.16764,-0.238198 0.50909,0 0.786988,0.25221 0.280234,0.25221 0.280234,0.705254 v 1.735112 z m -0.67723,-0.597832 q 0.165804,0 0.282568,-0.105087 0.1191,-0.105088 0.1191,-0.273228 v -0.205504 l -0.210176,0.0093 q -0.450708,0.01635 -0.450708,0.331609 0,0.242869 0.259216,0.242869 z m 3.528605,-2.094744 q 0.119099,0 0.226522,0.01868 l 0.05138,0.0093 -0.08174,0.861718 q -0.112093,-0.02802 -0.310592,-0.02802 -0.298916,0 -0.434362,0.137782 -0.135446,0.135446 -0.135446,0.392327 v 1.30075 h -0.913094 v -2.645871 h 0.679566 l 0.142452,0.422686 h 0.04437 q 0.114429,-0.210175 0.317598,-0.338616 0.205505,-0.130775 0.413345,-0.130775 z m 1.94295,2.01768 q 0.184487,0 0.441368,-0.09108 v 0.665555 q -0.184487,0.0794 -0.352627,0.112093 -0.165805,0.03503 -0.389992,0.03503 -0.460049,0 -0.663219,-0.224187 -0.203169,-0.226522 -0.203169,-0.693577 v -1.090575 h -0.319933 v -0.371309 l 0.406338,-0.28724 0.235864,-0.555796 h 0.597831 v 0.530108 h 0.649207 v 0.684237 h -0.649207 v 1.029858 q 0,0.25688 0.247539,0.25688 z m 3.208673,0.674896 h -2.47773 v -0.607173 l 0.833695,-0.843035 q 0.357297,-0.373645 0.467055,-0.509091 0.109758,-0.137781 0.151793,-0.235863 0.04437,-0.09808 0.04437,-0.205504 0,-0.133111 -0.08641,-0.210176 -0.0864,-0.07706 -0.242869,-0.07706 -0.161134,0 -0.326939,0.09341 -0.163469,0.09108 -0.371309,0.270893 l -0.506755,-0.593161 q 0.263886,-0.235863 0.443703,-0.33628 0.179816,-0.102752 0.389991,-0.156464 0.21251,-0.05371 0.476397,-0.05371 0.331609,0 0.590825,0.116764 0.261551,0.116764 0.404003,0.333945 0.144788,0.214845 0.144788,0.483402 0,0.200834 -0.05138,0.371309 -0.04904,0.170476 -0.154129,0.336281 -0.105087,0.163469 -0.280233,0.345621 -0.172811,0.182151 -0.740283,0.691242 v 0.02335 h 1.291408 z m 2.912092,-0.660884 h -0.375979 v 0.660884 h -0.910759 v -0.660884 h -1.361467 v -0.677231 l 1.419849,-2.076062 h 0.852377 v 2.064386 h 0.375979 z m -1.286738,-0.688907 v -0.396998 q 0,-0.112093 0.007,-0.30125 0.0093,-0.191493 0.01401,-0.200834 h -0.02569 q -0.0794,0.179816 -0.179816,0.33628 L 60.2463,15.246746 Z m 3.979314,1.349791 h -2.47773 v -0.607173 l 0.833694,-0.843035 q 0.357298,-0.373645 0.467056,-0.509091 0.109758,-0.137781 0.151793,-0.235863 0.04437,-0.09808 0.04437,-0.205504 0,-0.133111 -0.08641,-0.210176 -0.0864,-0.07706 -0.242869,-0.07706 -0.161134,0 -0.326939,0.09341 -0.163469,0.09108 -0.371309,0.270893 l -0.506756,-0.593161 q 0.263887,-0.235863 0.443703,-0.33628 0.179817,-0.102752 0.389992,-0.156464 0.21251,-0.05371 0.476397,-0.05371 0.331609,0 0.590825,0.116764 0.261551,0.116764 0.404003,0.333945 0.144787,0.214845 0.144787,0.483402 0,0.200834 -0.05138,0.371309 -0.04904,0.170476 -0.154128,0.336281 -0.105088,0.163469 -0.280234,0.345621 -0.17281,0.182151 -0.740283,0.691242 v 0.02335 h 1.291409 z m 2.381984,0 h -0.936447 v -1.807506 q 0,-0.329274 0.01401,-0.602502 -0.0864,0.105088 -0.214846,0.219517 l -0.387656,0.319933 -0.478732,-0.58849 1.17231,-0.955129 H 67.1704 Z"
         id="text1-2-7"
         inkscape:label="spine-author"
         transform="rotate(90)"
         aria-label="AmethystHeart2421" />
      <path
         style="font-weight:800;font-size:4.78265px;font-family:'Open Sans';-inkscape-font-specification:'Open Sans, Ultra-Bold';fill:none;stroke:#000000;stroke-width:0.1;stroke-linejoin:round"
         d="m 191.26061,14.923316 q 0,0.861717 -0.42268,1.310091 -0.42269,0.448373 -1.2377,0.448373 -0.80334,0 -1.23303,-0.450709 -0.42736,-0.450708 -0.42736,-1.312426 0,-0.852377 0.42503,-1.30075 0.42735,-0.450709 1.24003,-0.450709 0.81501,0 1.23536,0.446038 0.42035,0.446039 0.42035,1.310092 z m -2.34929,0 q 0,0.990158 0.68891,0.990158 0.35029,0 0.51843,-0.240534 0.17047,-0.240534 0.17047,-0.749624 0,-0.511426 -0.17281,-0.754295 -0.17047,-0.245205 -0.51142,-0.245205 -0.69358,0 -0.69358,0.9995 z m 4.95546,0.899082 q 0,0.42502 -0.28957,0.642201 -0.28958,0.217181 -0.83136,0.217181 -0.29425,0 -0.51143,-0.03269 -0.21718,-0.03036 -0.4437,-0.114428 v -0.730942 q 0.21251,0.09341 0.46472,0.154128 0.25454,0.06072 0.45304,0.06072 0.29658,0 0.29658,-0.135446 0,-0.07006 -0.0841,-0.12377 -0.0817,-0.05605 -0.48106,-0.214845 -0.36431,-0.149458 -0.50909,-0.338616 -0.14479,-0.191493 -0.14479,-0.483402 0,-0.368974 0.2849,-0.574479 0.28491,-0.205504 0.80567,-0.205504 0.26155,0 0.49041,0.05838 0.23119,0.05605 0.47873,0.165804 l -0.24754,0.588491 q -0.18215,-0.08174 -0.38532,-0.137782 -0.20317,-0.05838 -0.33161,-0.05838 -0.22418,0 -0.22418,0.109758 0,0.06772 0.0771,0.116764 0.0794,0.04671 0.45304,0.193828 0.2779,0.114429 0.41335,0.224187 0.13778,0.109758 0.20083,0.259216 0.0654,0.147122 0.0654,0.359633 z m 2.12277,-1.879899 q 0.43203,0 0.68424,0.361968 0.25454,0.361968 0.25454,1.001834 0,0.644537 -0.25688,1.011176 -0.25455,0.364303 -0.70992,0.364303 -0.14713,0 -0.26156,-0.03269 -0.11442,-0.03036 -0.2055,-0.0864 -0.0887,-0.05605 -0.20784,-0.186822 h -0.056 l -0.14478,0.259216 h -0.71226 v -3.633693 h 0.91309 V 13.8234 q 0,0.147122 -0.0327,0.506755 h 0.0327 q 0.13311,-0.205505 0.30592,-0.29658 0.17515,-0.09108 0.397,-0.09108 z m -0.33395,0.71693 q -0.19149,0 -0.28023,0.133111 -0.0887,0.133111 -0.0887,0.418015 v 0.12844 q 0,0.324604 0.0887,0.467056 0.0887,0.140117 0.28958,0.140117 0.16113,0 0.24753,-0.16347 0.0864,-0.165805 0.0864,-0.485738 0,-0.637531 -0.34329,-0.637531 z m 4.32027,0.646872 q 0,0.649208 -0.35029,1.013511 -0.34796,0.361968 -0.97615,0.361968 -0.6025,0 -0.9598,-0.371309 -0.35496,-0.371309 -0.35496,-1.00417 0,-0.646872 0.34796,-1.004169 0.35029,-0.359633 0.98081,-0.359633 0.38999,0 0.68891,0.165804 0.29891,0.165805 0.46005,0.476397 0.16347,0.308257 0.16347,0.721601 z m -1.7141,0 q 0,0.340951 0.0911,0.520767 0.0911,0.177481 0.30592,0.177481 0.21251,0 0.29892,-0.177481 0.0887,-0.179816 0.0887,-0.520767 0,-0.338615 -0.0887,-0.511426 -0.0887,-0.17281 -0.30359,-0.17281 -0.21017,0 -0.30125,0.17281 -0.0911,0.170476 -0.0911,0.511426 z m 3.8322,-1.363802 q 0.1191,0 0.22652,0.01868 l 0.0514,0.0093 -0.0817,0.861718 q -0.11209,-0.02802 -0.31059,-0.02802 -0.29892,0 -0.43436,0.137782 -0.13545,0.135446 -0.13545,0.392327 v 1.30075 h -0.91309 v -2.645871 h 0.67956 l 0.14245,0.422686 h 0.0444 q 0.11443,-0.210175 0.3176,-0.338616 0.20551,-0.130775 0.41335,-0.130775 z m 2.31659,2.692576 v -1.443202 q 0,-0.263887 -0.0771,-0.396998 -0.0747,-0.135446 -0.24287,-0.135446 -0.23119,0 -0.33395,0.184487 -0.10275,0.184487 -0.10275,0.632861 v 1.158298 h -0.91309 v -2.645871 h 0.68891 l 0.11442,0.326939 h 0.0537 q 0.11676,-0.186822 0.32226,-0.280233 0.20784,-0.09341 0.4764,-0.09341 0.43903,0 0.6819,0.254545 0.24521,0.254545 0.24521,0.71693 v 1.721101 z m 5.30809,-2.328273 q 0,0.572143 -0.33861,0.885071 -0.33628,0.310592 -0.95747,0.310592 h -0.25921 v 1.13261 h -0.92244 v -3.414177 h 1.18165 q 0.64687,0 0.97148,0.282568 0.3246,0.282569 0.3246,0.803336 z m -1.55529,0.443703 h 0.16814 q 0.20784,0 0.32927,-0.116764 0.12377,-0.116764 0.12377,-0.322268 0,-0.345622 -0.38299,-0.345622 h -0.23819 z m 3.93027,1.88457 -0.11443,-0.329275 h -0.0537 q -0.11443,0.182152 -0.31993,0.280234 -0.20317,0.09575 -0.47874,0.09575 -0.43669,0 -0.67956,-0.25221 -0.24287,-0.254545 -0.24287,-0.71693 v -1.723436 h 0.91309 v 1.445538 q 0,0.259215 0.0724,0.392326 0.0747,0.133111 0.24287,0.133111 0.23586,0 0.33628,-0.184487 0.10041,-0.186822 0.10041,-0.62819 v -1.158298 h 0.9131 v 2.645871 z m 2.93544,-2.692576 q 0.43203,0 0.68424,0.361968 0.25454,0.361968 0.25454,1.001834 0,0.644537 -0.25688,1.011176 -0.25454,0.364303 -0.70992,0.364303 -0.14712,0 -0.26155,-0.03269 -0.11443,-0.03036 -0.20551,-0.0864 -0.0887,-0.05605 -0.20784,-0.186822 h -0.056 l -0.14479,0.259216 h -0.71226 v -3.633693 h 0.91309 V 13.8234 q 0,0.147122 -0.0327,0.506755 h 0.0327 q 0.13311,-0.205505 0.30593,-0.29658 0.17514,-0.09108 0.39699,-0.09108 z m -0.33394,0.71693 q -0.1915,0 -0.28024,0.133111 -0.0887,0.133111 -0.0887,0.418015 v 0.12844 q 0,0.324604 0.0887,0.467056 0.0887,0.140117 0.28958,0.140117 0.16113,0 0.24754,-0.16347 0.0864,-0.165805 0.0864,-0.485738 0,-0.637531 -0.34328,-0.637531 z m 2.70659,1.975646 h -0.9131 v -3.633693 h 0.9131 z m 1.55062,0 h -0.91309 v -2.645871 h 0.91309 z m -0.93645,-3.304419 q 0,-0.205505 0.11443,-0.305922 0.11443,-0.100417 0.36898,-0.100417 0.25454,0 0.37131,0.102753 0.11676,0.102752 0.11676,0.303586 0,0.401668 -0.48807,0.401668 -0.48341,0 -0.48341,-0.401668 z m 3.61735,2.491742 q 0,0.42502 -0.28957,0.642201 -0.28958,0.217181 -0.83136,0.217181 -0.29425,0 -0.51143,-0.03269 -0.21718,-0.03036 -0.4437,-0.114428 v -0.730942 q 0.21251,0.09341 0.46472,0.154128 0.25454,0.06072 0.45304,0.06072 0.29658,0 0.29658,-0.135446 0,-0.07006 -0.0841,-0.12377 -0.0817,-0.05605 -0.48107,-0.214845 -0.3643,-0.149458 -0.50909,-0.338616 -0.14478,-0.191493 -0.14478,-0.483402 0,-0.368974 0.2849,-0.574479 0.2849,-0.205504 0.80567,-0.205504 0.26155,0 0.49041,0.05838 0.23119,0.05605 0.47873,0.165804 l -0.24754,0.588491 q -0.18215,-0.08174 -0.38532,-0.137782 -0.20317,-0.05838 -0.33161,-0.05838 -0.22418,0 -0.22418,0.109758 0,0.06772 0.0771,0.116764 0.0794,0.04671 0.45304,0.193828 0.2779,0.114429 0.41335,0.224187 0.13778,0.109758 0.20083,0.259216 0.0654,0.147122 0.0654,0.359633 z m 2.17181,0.812677 v -1.443202 q 0,-0.532444 -0.31526,-0.532444 -0.22419,0 -0.33161,0.189158 -0.10509,0.186822 -0.10509,0.623519 v 1.162969 H 222.14 v -3.633693 h 0.91309 v 0.516096 q 0,0.350292 -0.0374,0.798665 h 0.042 q 0.13078,-0.205504 0.31059,-0.289574 0.17982,-0.08407 0.41802,-0.08407 0.4437,0 0.6889,0.25688 0.24754,0.254546 0.24754,0.714595 v 1.721101 z m 2.45671,0 h -0.91309 v -2.645871 h 0.91309 z m -0.93644,-3.304419 q 0,-0.205505 0.11443,-0.305922 0.11442,-0.100417 0.36897,-0.100417 0.25454,0 0.37131,0.102753 0.11676,0.102752 0.11676,0.303586 0,0.401668 -0.48807,0.401668 -0.4834,0 -0.4834,-0.401668 z m 3.2437,3.304419 v -1.443202 q 0,-0.263887 -0.0771,-0.396998 -0.0747,-0.135446 -0.24287,-0.135446 -0.23119,0 -0.33394,0.184487 -0.10275,0.184487 -0.10275,0.632861 v 1.158298 h -0.9131 v -2.645871 h 0.68891 l 0.11443,0.326939 h 0.0537 q 0.11676,-0.186822 0.32227,-0.280233 0.20784,-0.09341 0.4764,-0.09341 0.43903,0 0.6819,0.254545 0.2452,0.254545 0.2452,0.71693 v 1.721101 z m 4.03069,-2.645871 v 0.441368 l -0.36197,0.133111 q 0.0747,0.135446 0.0747,0.315262 0,0.427356 -0.30125,0.663219 -0.29892,0.235863 -0.89441,0.235863 -0.14713,0 -0.23353,-0.01868 -0.0327,0.06072 -0.0327,0.114429 0,0.06772 0.10976,0.105087 0.10976,0.03503 0.28724,0.03503 h 0.43903 q 0.88974,0 0.88974,0.749624 0,0.483403 -0.41334,0.75196 -0.41101,0.268557 -1.15596,0.268557 -0.5628,0 -0.86873,-0.189158 -0.30358,-0.186822 -0.30358,-0.539449 0,-0.474062 0.58849,-0.611843 -0.12144,-0.05138 -0.21251,-0.165805 -0.0887,-0.114429 -0.0887,-0.226522 0,-0.12377 0.0677,-0.217181 0.0677,-0.09575 0.28257,-0.226522 -0.20551,-0.09108 -0.3246,-0.284904 -0.11677,-0.193828 -0.11677,-0.471726 0,-0.432027 0.29425,-0.670225 0.29424,-0.238198 0.8407,-0.238198 0.0724,0 0.24987,0.01635 0.17748,0.01635 0.26155,0.03036 z m -1.99433,2.975145 q 0,0.112093 0.12143,0.179816 0.12144,0.07006 0.32461,0.07006 0.33161,0 0.53011,-0.08407 0.20083,-0.08174 0.20083,-0.212511 0,-0.105087 -0.12143,-0.149458 -0.12144,-0.04203 -0.34796,-0.04203 h -0.3573 q -0.14712,0 -0.24987,0.06772 -0.10042,0.07006 -0.10042,0.170475 z m 0.28724,-2.108756 q 0,0.406338 0.28257,0.406338 0.13077,0 0.20083,-0.100417 0.0724,-0.100417 0.0724,-0.301251 0,-0.411009 -0.27323,-0.411009 -0.28257,0 -0.28257,0.406339 z"
         id="text1-2-7-2"
         inkscape:label="spine-author"
         transform="rotate(90)"
         aria-label="Osborn Publishing" />
      <rect
         style="fill:none;stroke:#030303;stroke-width:0.0999998;stroke-linejoin:round;stroke-dasharray:none;stroke-opacity:1"
         id="spine"
         width="13.850059"
         height="228.45006"
         x="-22.30233"
         y="11.398208" />
    </g>
  </g>
</svg>
