<?xml version="1.0"?><svg width="640" height="480" xmlns="http://www.w3.org/2000/svg">
 <title>Film Divider</title>
 <metadata id="metadata7">image/svg+xml</metadata>
 <g>
  <title>Layer 1</title>
  <g transform="rotate(89.26972961425781 542.3421020507814,216.265625) " id="layer1">
   <path fill="#000000" fill-rule="evenodd" stroke-width="141.732285" stroke-miterlimit="4" id="path9192" d="m485.14328,-96.000008c-51.869812,153.510994 -34.123016,263.795082 -15.093719,346.875008c19.029724,83.079956 36.266724,134.355957 4.531311,235.0625l5.281189,1.65625l0.968811,-2.9375l-0.031311,0l1.468689,-4.75l0,-0.03125l0.156311,-0.53125l5.093689,1.5l-0.156189,0.5625l0,0.03125l-1.468781,4.78125l0,0.03125l-0.968719,2.9375l7.312531,2.3125c2.020477,-6.594238 3.836792,-13.011475 5.468781,-19.25l103.406189,24.5625c-2.165466,8.720459 -4.601135,17.619934 -7.375,26.6875l5.125,1.625l1.406189,-5.15625l0,-0.03125l0.906311,-3.53125l5.156311,1.34375l-0.937622,3.5625l-1.468689,5.40625l5.8125,1.8125c41.673706,-132.24408 16.455688,-230.649963 -1.5625,-309.3125c-18.017761,-78.662521 -31.894897,-142.184982 11.250061,-269.875004l-5.96875,-2.03125l-0.03125,0.09375l-5.031372,-1.71875l0.031372,-0.0625l-6.625061,-2.25c-0.549744,1.661591 -1.062378,3.295479 -1.593689,4.9375l-100.968781,-33.624996c0.573273,-1.780655 1.157684,-3.550163 1.749969,-5.34375l-6.406189,-2.15625l-0.75,2.53125l-5.093811,-1.53125l0.781189,-2.718758l-4.374969,-1.46875zm2.093811,9.312508l5.093781,1.46875l-1.281311,4.40625l0,0.03125l-1.625,5.78125l-5.125,-1.4375l1.656311,-5.8125l0,-0.03125l1.281219,-4.40625zm-4.343811,15.40625l5.124969,1.375l-0.968689,3.53125l0.031311,0l-1.781311,6.718746l-5.125,-1.34375l1.75,-6.718746l0,-0.03125l0.968719,-3.53125zm9,10.281246l101.624969,31.093754c-8.202576,28.375702 -13.529297,53.756119 -16.624939,77l-103.750031,-18.343758c3.654785,-27.926079 9.668976,-57.758026 18.75,-89.749996zm-13.062408,5.1875l5.156189,1.28125l-0.5625,2.25l-1.718689,6.90625l0.031189,0l-0.281189,1.125l-5.187622,-1.21875l0.281311,-1.15625l1.718689,-6.9375l0,-0.03125l0.562622,-2.21875zm127.875,6.59375l5.062378,1.65625l-0.562378,1.65625l0,0.03125l-1.937622,6.125l-0.687378,2.25l-5.09375,-1.5625l0.71875,-2.25l0,-0.03125l1.937439,-6.15625l0,-0.03125l0.03125,0l0.531311,-1.6875zm-131.656311,8.9375l5.187531,1.21875l-0.125031,0.5l0,0.03125l-1.531189,6.687504l0,0.03125l-0.687592,3.0625l-5.187408,-1.125l0.687378,-3.093746l0,-0.03125l1.531311,-6.750008l0,-0.03125l0.125,-0.5zm126.875,6.343758l5.093689,1.5l-1.374939,4.687496l0,0.03125l-1.59375,5.46875l-5.093689,-1.46875l1.562378,-5.5l0.031311,-0.03125l1.375,-4.687496zm-130.343689,9.281246l5.187378,1.09375l-1.031189,4.9375l-1.093781,5.4375l-5.218719,-1.03125l1.093689,-5.46875l0.031311,-0.03125l1.031311,-4.9375zm125.937378,6.09375l5.125061,1.40625l-0.312439,1.0625l0.03125,0l-1.53125,5.71875l0,0.03125l-0.875,3.4375l-5.156311,-1.34375l0.875,-3.4375l1.531311,-5.75l0,-0.03125l0.312378,-1.09375zm-129.093689,9.5625l5.218719,1l-0.437408,2.25l-1.156311,6.312492l-0.3125,1.875l-5.218811,-0.90625l0.312622,-1.875l0,-0.03125l1.156189,-6.343742l0,-0.03125l0.4375,-2.25zm125.093689,5.9375l5.156311,1.281242l-0.656311,2.625l0,0.03125l-1.281189,5.4375l0,0.03125l-0.468811,2.15625l-5.187378,-1.15625l0.468689,-2.1875l0.031311,-0.03125l1.281189,-5.5l0,-0.03125l0.656189,-2.656242zm-127.906189,9.843742l5.218811,0.84375l-0.843811,5.3125l0,0.03125l-0.8125,5.15625l-5.25,-0.8125l0.8125,-5.1875l0,-0.03125l0.875,-5.3125zm124.3125,5.78125l5.21875,1.09375l-0.718689,3.40625l0,0.03125l-1.0625,5.25l-0.312561,1.6875l-5.218689,-0.96875l0.312439,-1.71875l0,-0.03125l1.062561,-5.28125l0,-0.03125l0.718689,-3.4375zm-126.781281,10.03125l5.281281,0.75l-0.25,1.65625l0,0.03125l-0.8125,5.906258l0,0.031235l-0.343811,2.875l-5.281189,-0.687485l0.375,-2.875l0,-0.03125l0.781219,-5.937508l0,-0.03125l0.25,-1.6875zm123.718781,5.71875l5.218811,0.90625l-0.625,3.437508l0.03125,0l-0.843811,5.0625l0,0.03125l-0.312439,1.90625l-5.25,-0.812515l0.312378,-1.937485l0,-0.03125l0.843811,-5.09375l0,-0.03125l0.625,-3.437508zm-125.781189,10.156258l5.281189,0.625l-0.406189,3.46875l0,0.03125l-0.593811,5.6875l0,0.03125l-0.124969,1.28125l-5.312531,-0.5l0.125,-1.34375l0.031311,0l0.593689,-5.75l0,-0.031265l0.406311,-3.499985zm123.21875,5.65625l5.249939,0.75l-0.40625,2.75l0.03125,0l-0.656311,4.875l0,0.03125l-0.343689,2.84375l-5.28125,-0.65625l0.34375,-2.84375l0,-0.031265l0.65625,-4.906235l0,-0.03125l0.406311,-2.78125zm-124.875061,10.28125l5.3125,0.46875l-0.406189,4.59375l0,0.03125l-0.437592,5.468735l0,0.031265l-0.031219,0.40625l-5.3125,-0.34375l0.031311,-0.4375l0,-0.03125l0.437378,-5.53125l0,-0.03125l0.406311,-4.625zm10.593689,4.3125l104.406311,11.9375c-1.866089,25.024277 -1.106323,47.666656 1.21875,69.25l-105.125061,5.937485c-2.306671,-26.793274 -2.889679,-55.693649 -0.5,-87.124985zm112.281372,1.3125l5.28125,0.59375l-0.15625,1.40625l0,0.03125l-0.437561,4.65625l0,0.03125l-0.375,4.375l-5.281189,-0.4375l0.375,-4.40625l0,-0.03125l0.437439,-4.71875l0,-0.03125l0.156311,-1.46875zm-124.09375,10.34375l5.312378,0.3125l-0.312378,5.09375l0,0.03125l-0.25,5.28125l0,0.15625l-5.312592,-0.21875l0,-0.15625l0,-0.031265l0.25,-5.312485l0,-0.03125l0.312592,-5.125zm122.718689,5.6875l5.3125,0.3125l-0.25,4.09375l0,0.03125l-0.218811,4.4375l0,0.031235l-0.062378,1.968765l-5.312622,-0.21875l0.062622,-2l0,-0.03125l0.218689,-4.5l0,-0.03125l0.25,-4.09375zm-123.499969,10.3125l5.312469,0.15625l-0.156189,4.96875l0,0.03125l-0.062622,5.59375l-5.312378,-0.0625l0.062378,-5.65625l0,-0.03125l0.156342,-5zm122.812469,5.6875l5.3125,0.15625l-0.062439,1.5l0.031128,0l-0.062378,4.28125l0,0.0625l0,4.6875l-5.312561,0.03125l0,-4.75l0,-0.03125l0.03125,-4.375l0,-0.03125l0.0625,-1.53125zm-123.093781,10.34375l5.312592,0l0.031189,9.1875l0,0.0625l0.031189,1.312485l-5.312378,0.125015l-0.031311,-1.375l0,-0.03125l-0.031281,-9.28125zm128.374969,5.59375l0.187622,6.843735l0,0.062515l0.187439,3.6875l-5.312439,0.249985l-0.187622,-3.749985l0,-0.03125l0,-0.03125l-0.187378,-6.875l5.312378,-0.15625zm-122.874969,10.28125l0.062592,3.03125l0,0.0625l0.312378,7.468735l-5.312378,0.218765l-0.312622,-7.53125l0,-0.03125l-0.062378,-3.09375l5.312408,-0.125zm123.500031,5.562485l0.53125,7.187515l0,0.0625l0.281311,3.28125l-5.281311,0.468735l-0.312439,-3.312485l0,-0.03125l0,-0.03125l-0.500061,-7.25l5.28125,-0.375015zm-122.84375,10.281265l0.343719,6l0,0.0625l0.374969,4.5l-5.312378,0.40625l-0.343781,-4.5625l0,-0.03125l-0.375031,-6.0625l5.3125,-0.3125zm124.156311,5.5l0.812378,7.09375l-0.031189,0l0.468811,3.40625l-5.28125,0.6875l-0.437561,-3.4375l0,-0.03125l0,-0.03125l-0.8125,-7.125l5.281311,-0.5625zm-123.031311,10.3125l0.781311,8.218735l0,0.03125l0.25,2.281265l-5.281311,0.59375l-0.25,-2.312515l0,-0.03125l0,-0.03125l-0.781281,-8.249985l5.281281,-0.5zm124.968689,5.40625l1,6.53125l0,0.03125l0.625,3.90625l-5.218689,0.84375l-0.65625,-3.90625l0,-0.03125l0,-0.03125l-1,-6.5625l5.249939,-0.78125zm-10.625,7.75c3.22406,20.195282 7.554138,39.85968 12.156311,60.15625c1.200806,5.295837 2.422729,10.642212 3.656311,16.0625l-103.562622,24c-1.221497,-5.276001 -2.47699,-10.617584 -3.718689,-16.09375c-5.0737,-22.375519 -10.010193,-46.371948 -13.5625,-72.40625l105.031189,-11.71875zm-112.718689,2.65625l0.125,1.15625l0,0.03125l1.093689,8.53125l0,0.0625l0.093811,0.6875l-5.25,0.75l-0.093811,-0.75l-0.031189,0l0,-0.03125l-1.093781,-8.625l0,-0.03125l-0.125031,-1.1875l5.281311,-0.59375zm125.875,5.25l1.031311,5.6875l0,0.0625l0.906189,4.65625l-5.21875,1.03125l-0.90625,-4.71875l0,-0.03125l-1.0625,-5.75l5.25,-0.9375zm-123.8125,10.46875l0.343811,2.4375l0,0.03125l1.281189,8l-5.25,0.8125l-1.281189,-8.03125l0,-0.03125l-0.343811,-2.46875l5.25,-0.75zm126.8125,5.125l0.96875,4.6875l0,0.03125l1.21875,5.65625l-5.1875,1.125l-1.218689,-5.6875l-0.031311,0l0,-0.03125l-0.968689,-4.71875l5.218689,-1.0625zm-124.3125,10.5625l0.531219,3.15625l0,0.03125l1.312592,7.25l-5.218781,0.9375l-1.312531,-7.28125l-0.031281,-0.03125l-0.531219,-3.1875l5.25,-0.875zm127.656189,4.96875l0.812622,3.5625l1.593689,6.78125l-5.187439,1.21875l-1.562561,-6.78125l0,-0.03125l-0.03125,0l-0.78125,-3.5625l5.156189,-1.1875zm-124.812378,10.65625l0.656189,3.4375l0,0.03125l1.406189,6.9375l-5.187378,1.03125l-1.406311,-6.9375l0,-0.03125l-0.031281,0l-0.656189,-3.46875l5.218781,-1zm128.437439,4.84375l2.312561,9.5625l0.187378,0.75l-5.187378,1.25l-0.156311,-0.75l-2.3125,-9.59375l5.15625,-1.21875zm-125.28125,10.71875l0.718811,3.34375l1.531189,7.03125l-5.1875,1.15625l-1.5625,-7.0625l-0.6875,-3.34375l5.1875,-1.125zm129.03125,4.78125l2.03125,8.46875l0.031311,0l0.437439,1.875l-5.187439,1.21875l-0.437622,-1.84375l0,-0.03125l-2.062378,-8.4375l5.187439,-1.25zm-125.625061,10.78125l2.312622,10.34375l-2.593811,0.59375l-2.593781,0.59375l0,-0.03125l-2.312408,-10.34375l5.187378,-1.15625zm129.343872,4.71875l1.749939,7.5l0.03125,0.03125l0.624939,2.84375l-5.156189,1.1875l-0.656189,-2.84375l-1.781311,-7.5l5.187561,-1.21875zm-125.843872,10.8125l2.187622,9.53125l0.187408,0.84375l-5.187408,1.1875l-0.187622,-0.84375l0,-0.03125l-2.187378,-9.5l5.187378,-1.1875zm129.437622,4.78125l1.46875,6.71875l0,0.03125l0.78125,3.65625l-5.218811,1.09375l-0.75,-3.625l0,-0.03125l-1.468811,-6.71875l5.187622,-1.125zm-11.906311,4.40625c5.519531,26.275146 10.401611,54.199585 12.59375,84.4375l-104.812439,9c-1.839111,-24.85437 -6.460022,-48.549103 -12.062622,-73.59375l104.281311,-19.84375zm-114,6.375l1.9375,8.5l0.406189,1.875l-5.187378,1.15625l-0.406311,-1.875l-1.9375,-8.5l5.1875,-1.15625zm129.218689,4.875l1.25,6.21875l0,0.03125l0.781372,4.21875l-5.21875,0.9375l-0.78125,-4.15625l0,-0.03125l-1.21875,-6.1875l5.187378,-1.03125zm-125.75,10.71875l0.031311,0.125l0,0.03125l0.031311,0l1.5,7.1875l0,0.03125l0.625,3.0625l-5.187622,1.0625l-0.624969,-3.03125l0,-0.03125l-1.531219,-7.15625l0,-0.03125l-0.031189,-0.125l5.187378,-1.125zm128.718811,5l1.031189,6.09375l0,0.03125l0.687622,4.40625l-5.25,0.8125l-0.687622,-4.40625l0.031311,0l-1.0625,-6.03125l5.25,-0.90625zm-125.468811,10.65625l1.187622,6.125l0,0.03125l0.781189,4.34375l-5.25,0.9375l-0.781189,-4.34375l0.031189,0l-1.1875,-6.0625l5.218689,-1.03125zm127.968811,5.1875l0.90625,6.375l0,0.03125l0.5,4.1875l-5.28125,0.625l-0.499939,-4.125l0,-0.03125l-0.875,-6.34375l5.249939,-0.71875zm-125.093781,10.5625l0.812592,4.875l0,0.03125l0.843689,5.65625l-5.25,0.78125l-0.843689,-5.59375l0,-0.03125l-0.812622,-4.84375l5.250031,-0.875zm127.093781,5.34375l0.750061,7.1875l0,0.03125l0,0.03125l0.281128,3.375l-5.312378,0.4375l-0.281311,-3.375l0.031311,0l-0.75,-7.15625l5.281189,-0.53125zm-124.6875,10.53125l0.5,3.625l0,0.03125l0.781311,6.9375l-5.281311,0.59375l-0.781311,-6.875l0,-0.03125l-0.5,-3.59375l5.281311,-0.6875zm126.156311,5.4375l0.531189,8.6875l0,0.03125l0,0.03125l0.093811,1.9375l-5.312622,0.21875l-0.093628,-1.90625l0,-0.03125l-0.531311,-8.625l5.312561,-0.34375zm-124.343811,10.5l0.218811,2.5l0.031189,0.03125l0,0.03125l0.531219,7.46875l0,0.03125l0,0.03125l0.031281,0.59375l-5.281311,0.28125l-0.031189,-0.5625l0,-0.03125l-0.5625,-7.375l0,-0.03125l-0.25,-2.46875l5.3125,-0.5zm125.1875,5.5l0.0625,1.6875l0,0.03125l0,0.03125l0.187561,8.90625l-5.312561,0.125l-0.1875,-8.84375l0,-0.0625l-0.0625,-1.65625l5.3125,-0.21875zm-124.093689,10.5l0.093689,1.625l0,0.03125l0,0.03125l0.218689,7.625l0,0.03125l0,0.03125l0,1.375l-5.312378,0.03125l0,-1.34375l0,-0.0625l-0.218811,-7.46875l0,-0.0625l-0.093781,-1.5625l5.312592,-0.28125zm119.062378,5.53125l5.312622,0.03125l0,4.34375l-0.03125,0.03125l-0.062561,4.78125l0,0.03125l-0.031189,1.5l-5.312561,-0.15625l0.03125,-1.46875l0,-0.03125l0.0625,-4.71875l0,-0.03125l0.031189,-4.3125zm-6.187378,6.71875c0.278076,27.58255 -1.928284,57.038696 -8,88.84375l-104.5,-18.15625c5.399994,-25.621338 7.50592,-48.450775 7.343689,-69.9375l105.156311,-0.75zm-112.531311,3.8125l0,1.03125l0,0.03125l0,0.03125l-0.156281,7.8125l0,0.03125l-0.062408,1.8125l-5.312622,-0.21875l0.062622,-1.75l0,-0.03125l0.156189,-7.71875l0,-0.0625l0,-0.9375l5.3125,-0.03125zm118.4375,5.3125l5.3125,0.21875l-0.125,2.9375l-0.218689,4.96875l0,0.03125l-0.156311,2.71875l-5.3125,-0.3125l0.156189,-2.6875l0,-0.03125l0.218811,-4.90625l0,-0.03125l0.125,-2.90625zm-124.218811,10.5l5.281311,0.28125l-0.031311,0.8125l0,0.03125l-0.25,4.03125l0,0.03125l-0.343689,4.03125l0,0.03125l-0.156311,1.75l-5.281189,-0.5l0.156219,-1.6875l0,-0.03125l0.312592,-3.96875l0,-0.03125l0.25,-3.96875l0,-0.03125l0.062378,-0.78125zm123.375061,5.34375l5.312561,0.375l-0.156311,2.09375l0,0.03125l-0.40625,5.1875l0,0.03125l-0.312439,3.3125l-5.281311,-0.5l0.281311,-3.28125l0,-0.03125l0.406189,-5.09375l0,-0.03125l0.15625,-2.09375zm-124.687439,10.40625l5.281189,0.5625l-0.125,1.15625l0,0.03125l0,0.03125l-0.5,4.125l0,0.03125l-0.531189,4.1875l-0.031311,0.03125l-0.156281,1.0625l-5.25,-0.78125l0.156281,-1l0,-0.03125l0.5625,-4.125l0,-0.03125l0.468811,-4.0625l0,-0.0625l0.125,-1.125zm123.312378,5.40625l5.312622,0.53125l-0.218811,1.9375l0,0.03125l-0.593811,5.375l0,0.03125l-0.406189,3.25l-5.249939,-0.65625l0.374939,-3.21875l0,-0.03125l0.593811,-5.3125l0,-0.03125l0.187378,-1.90625zm-125.406189,10.25l5.25,0.84375l-0.343811,2.1875l0,0.03125l-0.75,4.28125l0,0.03125l-0.75,4l-5.218689,-0.96875l0.718689,-3.96875l0,-0.03125l0.75,-4.21875l0,-0.03125l0.343811,-2.15625zm123.5625,5.5l5.281311,0.6875l-0.312561,2.46875l-0.03125,0l-0.781189,5.625l-0.375,2.5l-5.25,-0.8125l0.375,-2.4375l0,-0.03125l0.78125,-5.5625l0,-0.03125l0.312439,-2.40625zm-126.406311,10.0625l5.187622,1.09375l-0.843811,3.9375l0,0.03125l-1.031189,4.46875l0,0.03125l-0.468811,1.96875l-5.1875,-1.21875l0.468689,-1.9375l0.031311,-0.0625l1,-4.375l0,-0.03125l0.843689,-3.90625zm124.093872,5.625l5.249939,0.84375l-0.593811,3.71875l0,0.03125l-1,5.84375l-0.031189,0.03125l-0.156189,0.90625l-5.218811,-0.9375l0.156189,-0.90625l0,-0.03125l1,-5.78125l0,-0.03125l0.593872,-3.6875zm-127.687561,9.8125l5.156311,1.3125l-0.5,1.9375l0,0.03125l-1.25,4.59375l0,0.03125l-1.062622,3.71875l-5.093689,-1.4375l1.031311,-3.6875l0,-0.03125l1.218689,-4.53125l0,-0.03125l0.5,-1.90625zm124.96875,5.8125l5.21875,1.03125l-1.093811,5.75l0,0.03125l-0.968689,4.65625l-5.1875,-1.0625l0.9375,-4.625l0,-0.03125l1.09375,-5.75zm-3.125061,15.59375l5.187622,1.09375l-0.5,2.40625l-1.406311,6.28125l-0.406311,1.75l-5.156189,-1.1875l0.375,-1.71875l0,-0.03125l1.406189,-6.21875l0,-0.03125l0.5,-2.34375zm-3.5,15.46875l5.187622,1.25l-1.437622,5.875l0,0.03125l-1.124939,4.4375l-5.156189,-1.28125l1.124939,-4.4375l1.406189,-5.875z"/>
  </g>
  <g id="svg_1" transform="rotate(87.70951080322266 10.342117309570293,234.26560974121097) ">
   <path id="svg_2" fill="#000000" fill-rule="evenodd" stroke-width="141.732285" stroke-miterlimit="4" d="m-46.85672,-78.000015c-51.869812,153.511002 -34.123001,263.79509 -15.093719,346.875015c19.029724,83.079956 36.266724,134.355957 4.531311,235.0625l5.281189,1.65625l0.968811,-2.9375l-0.031311,0l1.468689,-4.75l0,-0.03125l0.156311,-0.53125l5.093689,1.5l-0.156189,0.5625l0,0.03125l-1.468781,4.78125l0,0.03125l-0.968719,2.9375l7.312531,2.3125c2.020477,-6.594238 3.836792,-13.011475 5.468781,-19.25l103.406189,24.5625c-2.165497,8.720459 -4.601105,17.619934 -7.375,26.6875l5.125,1.625l1.406189,-5.15625l0,-0.03125l0.906311,-3.53125l5.156311,1.34375l-0.937622,3.5625l-1.468689,5.40625l5.8125,1.8125c41.673706,-132.24408 16.455688,-230.649963 -1.5625,-309.3125c-18.017792,-78.662521 -31.894897,-142.184982 11.250031,-269.875l-5.968719,-2.03125l-0.031281,0.09375l-5.031342,-1.71875l0.031342,-0.0625l-6.625031,-2.25c-0.549774,1.661591 -1.062378,3.295479 -1.593689,4.9375l-100.968781,-33.625c0.573273,-1.780647 1.157684,-3.550163 1.749969,-5.34375l-6.406189,-2.15625l-0.75,2.53125l-5.093811,-1.53125l0.781189,-2.71875l-4.374969,-1.468765zm2.093811,9.312515l5.093781,1.46875l-1.281311,4.40625l0,0.03125l-1.625,5.78125l-5.125,-1.4375l1.656311,-5.8125l0,-0.03125l1.281219,-4.40625zm-4.343811,15.40625l5.124969,1.375l-0.968689,3.53125l0.031311,0l-1.781311,6.71875l-5.125,-1.34375l1.75,-6.71875l0,-0.03125l0.968719,-3.53125zm9,10.28125l101.624969,31.09375c-8.202576,28.375702 -13.529297,53.756119 -16.624969,77l-103.75,-18.343765c3.654785,-27.926075 9.668976,-57.758018 18.75,-89.749985zm-13.062408,5.1875l5.156189,1.28125l-0.5625,2.25l-1.718689,6.90625l0.031189,0l-0.281189,1.125l-5.187622,-1.21875l0.281311,-1.15625l1.718689,-6.9375l0,-0.03125l0.562622,-2.21875zm127.875,6.59375l5.062378,1.65625l-0.562378,1.65625l0,0.03125l-1.937622,6.125l-0.687378,2.25l-5.093781,-1.5625l0.718781,-2.25l0,-0.03125l1.937408,-6.15625l0,-0.03125l0.031281,0l0.531311,-1.6875zm-131.656311,8.9375l5.187531,1.21875l-0.125031,0.5l0,0.03125l-1.531189,6.6875l0,0.03125l-0.687592,3.0625l-5.187408,-1.125l0.687378,-3.09375l0,-0.03125l1.531311,-6.75l0,-0.03125l0.125,-0.5zm126.875,6.34375l5.093689,1.5l-1.374969,4.6875l0,0.03125l-1.593719,5.46875l-5.093689,-1.46875l1.562378,-5.5l0.031311,-0.03125l1.375,-4.6875zm-130.343689,9.28125l5.187378,1.09375l-1.031189,4.9375l-1.093781,5.4375l-5.218719,-1.03125l1.093689,-5.46875l0.031311,-0.03125l1.031311,-4.9375zm125.937378,6.09375l5.125031,1.40625l-0.312408,1.0625l0.031219,0l-1.531219,5.71875l0,0.03125l-0.875,3.4375l-5.156311,-1.34375l0.875,-3.4375l1.531311,-5.75l0,-0.03125l0.312378,-1.09375zm-129.093689,9.5625l5.218719,1l-0.437408,2.25l-1.156311,6.312492l-0.3125,1.875l-5.218811,-0.90625l0.312622,-1.875l0,-0.03125l1.156189,-6.343742l0,-0.03125l0.4375,-2.25zm125.093689,5.9375l5.156311,1.281242l-0.656311,2.625l0,0.03125l-1.281189,5.4375l0,0.031246l-0.468811,2.156254l-5.187378,-1.156254l0.468689,-2.187496l0.031311,-0.03125l1.281189,-5.5l0,-0.03125l0.656189,-2.656242zm-127.906189,9.843739l5.218811,0.843754l-0.843811,5.3125l0,0.03125l-0.8125,5.156246l-5.25,-0.8125l0.8125,-5.187496l0,-0.03125l0.875,-5.312504zm124.3125,5.781254l5.218719,1.09375l-0.718689,3.406246l0,0.03125l-1.0625,5.25l-0.312531,1.6875l-5.218689,-0.96875l0.312408,-1.71875l0,-0.03125l1.062592,-5.28125l0,-0.031246l0.718689,-3.4375zm-126.781281,10.031246l5.281281,0.75l-0.25,1.65625l0,0.03125l-0.8125,5.906261l0,0.031235l-0.343811,2.875l-5.281189,-0.687485l0.375,-2.875l0,-0.03125l0.781219,-5.937511l0,-0.03125l0.25,-1.6875zm123.718781,5.718746l5.218811,0.90625l-0.625,3.437515l0.031219,0l-0.843811,5.0625l0,0.03125l-0.312408,1.90625l-5.25,-0.812515l0.312378,-1.937485l0,-0.03125l0.843842,-5.09375l0,-0.03125l0.624969,-3.437515zm-125.781189,10.156265l5.281189,0.625l-0.406189,3.46875l0,0.03125l-0.593811,5.6875l0,0.03125l-0.124969,1.28125l-5.312531,-0.5l0.125,-1.34375l0.031311,0l0.593689,-5.75l0,-0.031265l0.406311,-3.499985zm123.218719,5.65625l5.249969,0.75l-0.406281,2.75l0.031281,0l-0.656311,4.875l0,0.03125l-0.343689,2.84375l-5.281281,-0.65625l0.343811,-2.84375l0,-0.031273l0.656189,-4.906227l0,-0.03125l0.406311,-2.78125zm-124.875031,10.28125l5.3125,0.46875l-0.406189,4.59375l0,0.03125l-0.437592,5.468727l0,0.031273l-0.031219,0.40625l-5.3125,-0.34375l0.031311,-0.4375l0,-0.03125l0.437378,-5.53125l0,-0.03125l0.406311,-4.625zm10.593689,4.3125l104.406311,11.9375c-1.866089,25.024277 -1.106293,47.666656 1.218719,69.25l-105.125031,5.937485c-2.306671,-26.793274 -2.889679,-55.693642 -0.5,-87.124985zm112.281342,1.3125l5.281281,0.59375l-0.156281,1.40625l0,0.03125l-0.437531,4.65625l0,0.03125l-0.375,4.375l-5.281189,-0.4375l0.375,-4.40625l0,-0.03125l0.437408,-4.71875l0,-0.03125l0.156311,-1.46875zm-124.093719,10.34375l5.312378,0.3125l-0.312378,5.09375l0,0.03125l-0.25,5.28125l0,0.15625l-5.312592,-0.21875l0,-0.15625l0,-0.031273l0.25,-5.312477l0,-0.03125l0.312592,-5.125zm122.718689,5.6875l5.312531,0.3125l-0.250031,4.09375l0,0.03125l-0.218811,4.4375l0,0.031227l-0.062378,1.968773l-5.312622,-0.21875l0.062622,-2l0,-0.03125l0.218689,-4.5l0,-0.03125l0.25,-4.09375zm-123.499969,10.3125l5.312469,0.15625l-0.156189,4.96875l0,0.03125l-0.062622,5.59375l-5.312378,-0.0625l0.062378,-5.65625l0,-0.03125l0.156342,-5zm122.8125,5.6875l5.312469,0.15625l-0.062469,1.5l0.031158,0l-0.062378,4.28125l0,0.0625l0,4.6875l-5.312592,0.03125l0,-4.75l0,-0.03125l0.031281,-4.375l0,-0.03125l0.062531,-1.53125zm-123.093811,10.34375l5.312592,0l0.031189,9.1875l0,0.0625l0.031189,1.312485l-5.312378,0.125015l-0.031311,-1.375l0,-0.03125l-0.031281,-9.28125zm128.374969,5.59375l0.187622,6.843735l0,0.062515l0.187408,3.6875l-5.312408,0.249985l-0.187622,-3.749985l0,-0.03125l0,-0.03125l-0.187378,-6.875l5.312378,-0.15625zm-122.874969,10.28125l0.062592,3.03125l0,0.0625l0.312378,7.468735l-5.312378,0.218765l-0.312622,-7.53125l0,-0.03125l-0.062378,-3.09375l5.312408,-0.125zm123.5,5.562485l0.531281,7.187515l0,0.0625l0.281311,3.28125l-5.281311,0.468735l-0.312469,-3.312485l0,-0.03125l0,-0.03125l-0.500031,-7.25l5.281219,-0.375015zm-122.843719,10.281265l0.343719,6l0,0.0625l0.374969,4.5l-5.312378,0.40625l-0.343781,-4.5625l0,-0.03125l-0.375031,-6.0625l5.3125,-0.3125zm124.156311,5.5l0.812378,7.09375l-0.031158,0l0.468781,3.40625l-5.281281,0.6875l-0.437531,-3.4375l0,-0.03125l0,-0.03125l-0.8125,-7.125l5.281311,-0.5625zm-123.031311,10.3125l0.781311,8.218735l0,0.03125l0.25,2.281265l-5.281311,0.59375l-0.25,-2.312515l0,-0.03125l0,-0.03125l-0.781281,-8.249985l5.281281,-0.5zm124.968689,5.40625l1,6.53125l0,0.03125l0.625,3.90625l-5.218689,0.84375l-0.656281,-3.90625l0,-0.03125l0,-0.03125l-1,-6.5625l5.249969,-0.78125zm-10.625,7.75c3.22403,20.195282 7.554138,39.85968 12.156311,60.15625c1.200806,5.295837 2.422729,10.642212 3.656311,16.0625l-103.562622,24c-1.221497,-5.276001 -2.47699,-10.617584 -3.718689,-16.09375c-5.0737,-22.375519 -10.010193,-46.371948 -13.5625,-72.40625l105.031189,-11.71875zm-112.718689,2.65625l0.125,1.15625l0,0.03125l1.093689,8.53125l0,0.0625l0.093811,0.6875l-5.25,0.75l-0.093811,-0.75l-0.031189,0l0,-0.03125l-1.093781,-8.625l0,-0.03125l-0.125031,-1.1875l5.281311,-0.59375zm125.875,5.25l1.031311,5.6875l0,0.0625l0.906189,4.65625l-5.218781,1.03125l-0.906219,-4.71875l0,-0.03125l-1.0625,-5.75l5.25,-0.9375zm-123.8125,10.46875l0.343811,2.4375l0,0.03125l1.281189,8l-5.25,0.8125l-1.281189,-8.03125l0,-0.03125l-0.343811,-2.46875l5.25,-0.75zm126.8125,5.125l0.968719,4.6875l0,0.03125l1.218781,5.65625l-5.1875,1.125l-1.218689,-5.6875l-0.031311,0l0,-0.03125l-0.968689,-4.71875l5.218689,-1.0625zm-124.3125,10.5625l0.531219,3.15625l0,0.03125l1.312592,7.25l-5.218781,0.9375l-1.312531,-7.28125l-0.031281,-0.03125l-0.531219,-3.1875l5.25,-0.875zm127.656189,4.96875l0.812622,3.5625l1.593689,6.78125l-5.187469,1.21875l-1.562531,-6.78125l0,-0.03125l-0.031281,0l-0.781219,-3.5625l5.156189,-1.1875zm-124.812378,10.65625l0.656189,3.4375l0,0.03125l1.406189,6.9375l-5.187378,1.03125l-1.406311,-6.9375l0,-0.03125l-0.031281,0l-0.656189,-3.46875l5.218781,-1zm128.437408,4.84375l2.312592,9.5625l0.187378,0.75l-5.187378,1.25l-0.156311,-0.75l-2.3125,-9.59375l5.156219,-1.21875zm-125.281219,10.71875l0.718811,3.34375l1.531189,7.03125l-5.1875,1.15625l-1.5625,-7.0625l-0.6875,-3.34375l5.1875,-1.125zm129.031219,4.78125l2.031281,8.46875l0.031311,0l0.437408,1.875l-5.187408,1.21875l-0.437622,-1.84375l0,-0.03125l-2.062378,-8.4375l5.187408,-1.25zm-125.625031,10.78125l2.312622,10.34375l-2.593811,0.59375l-2.593781,0.59375l0,-0.03125l-2.312408,-10.34375l5.187378,-1.15625zm129.343842,4.71875l1.749969,7.5l0.031219,0.03125l0.624969,2.84375l-5.156189,1.1875l-0.656189,-2.84375l-1.781311,-7.5l5.187531,-1.21875zm-125.843842,10.8125l2.187622,9.53125l0.187408,0.84375l-5.187408,1.1875l-0.187622,-0.84375l0,-0.03125l-2.187378,-9.5l5.187378,-1.1875zm129.437622,4.78125l1.468719,6.71875l0,0.03125l0.781281,3.65625l-5.218811,1.09375l-0.749969,-3.625l0,-0.03125l-1.468842,-6.71875l5.187622,-1.125zm-11.906311,4.40625c5.519501,26.275146 10.401611,54.199585 12.593719,84.4375l-104.812408,9c-1.839111,-24.85437 -6.460022,-48.549103 -12.062622,-73.59375l104.281311,-19.84375zm-114,6.375l1.9375,8.5l0.406189,1.875l-5.187378,1.15625l-0.406311,-1.875l-1.9375,-8.5l5.1875,-1.15625zm129.218689,4.875l1.25,6.21875l0,0.03125l0.781342,4.21875l-5.218719,0.9375l-0.781281,-4.15625l0,-0.03125l-1.218719,-6.1875l5.187378,-1.03125zm-125.75,10.71875l0.031311,0.125l0,0.03125l0.031311,0l1.5,7.1875l0,0.03125l0.625,3.0625l-5.187622,1.0625l-0.624969,-3.03125l0,-0.03125l-1.531219,-7.15625l0,-0.03125l-0.031189,-0.125l5.187378,-1.125zm128.718842,5l1.031158,6.09375l0,0.03125l0.687622,4.40625l-5.25,0.8125l-0.687622,-4.40625l0.031311,0l-1.0625,-6.03125l5.250031,-0.90625zm-125.468842,10.65625l1.187622,6.125l0,0.03125l0.781189,4.34375l-5.25,0.9375l-0.781189,-4.34375l0.031189,0l-1.1875,-6.0625l5.218689,-1.03125zm127.968811,5.1875l0.906219,6.375l0,0.03125l0.5,4.1875l-5.281219,0.625l-0.499969,-4.125l0,-0.03125l-0.875,-6.34375l5.249969,-0.71875zm-125.093781,10.5625l0.812592,4.875l0,0.03125l0.843689,5.65625l-5.25,0.78125l-0.843689,-5.59375l0,-0.03125l-0.812622,-4.84375l5.250031,-0.875zm127.093781,5.34375l0.750031,7.1875l0,0.03125l0,0.03125l0.281158,3.375l-5.312378,0.4375l-0.281311,-3.375l0.031311,0l-0.75,-7.15625l5.281189,-0.53125zm-124.6875,10.53125l0.5,3.625l0,0.03125l0.781311,6.9375l-5.281311,0.59375l-0.781311,-6.875l0,-0.03125l-0.5,-3.59375l5.281311,-0.6875zm126.156311,5.4375l0.531189,8.6875l0,0.03125l0,0.03125l0.093811,1.9375l-5.312622,0.21875l-0.093658,-1.90625l0,-0.03125l-0.531311,-8.625l5.312592,-0.34375zm-124.343811,10.5l0.218811,2.5l0.031189,0.03125l0,0.03125l0.531219,7.46875l0,0.03125l0,0.03125l0.031281,0.59375l-5.281311,0.28125l-0.031189,-0.5625l0,-0.03125l-0.5625,-7.375l0,-0.03125l-0.25,-2.46875l5.3125,-0.5zm125.1875,5.5l0.0625,1.6875l0,0.03125l0,0.03125l0.187531,8.90625l-5.312531,0.125l-0.1875,-8.84375l0,-0.0625l-0.0625,-1.65625l5.3125,-0.21875zm-124.093689,10.5l0.093689,1.625l0,0.03125l0,0.03125l0.218689,7.625l0,0.03125l0,0.03125l0,1.375l-5.312378,0.03125l0,-1.34375l0,-0.0625l-0.218811,-7.46875l0,-0.0625l-0.093781,-1.5625l5.312592,-0.28125zm119.062378,5.53125l5.312622,0.03125l0,4.34375l-0.031281,0.03125l-0.0625,4.78125l0,0.03125l-0.031219,1.5l-5.312592,-0.15625l0.031281,-1.46875l0,-0.03125l0.0625,-4.71875l0,-0.03125l0.031189,-4.3125zm-6.187378,6.71875c0.278076,27.58255 -1.928284,57.038696 -8,88.84375l-104.5,-18.15625c5.399994,-25.621338 7.50592,-48.450775 7.343689,-69.9375l105.156311,-0.75zm-112.531311,3.8125l0,1.03125l0,0.03125l0,0.03125l-0.156281,7.8125l0,0.03125l-0.062408,1.8125l-5.312622,-0.21875l0.062622,-1.75l0,-0.03125l0.156189,-7.71875l0,-0.0625l0,-0.9375l5.3125,-0.03125zm118.4375,5.3125l5.3125,0.21875l-0.125,2.9375l-0.218689,4.96875l0,0.03125l-0.156311,2.71875l-5.312469,-0.3125l0.156158,-2.6875l0,-0.03125l0.218811,-4.90625l0,-0.03125l0.125,-2.90625zm-124.218811,10.5l5.281311,0.28125l-0.031311,0.8125l0,0.03125l-0.25,4.03125l0,0.03125l-0.343689,4.03125l0,0.03125l-0.156311,1.75l-5.281189,-0.5l0.156219,-1.6875l0,-0.03125l0.312592,-3.96875l0,-0.03125l0.25,-3.96875l0,-0.03125l0.062378,-0.78125zm123.375031,5.34375l5.312592,0.375l-0.156311,2.09375l0,0.03125l-0.406281,5.1875l0,0.03125l-0.312408,3.3125l-5.281311,-0.5l0.281311,-3.28125l0,-0.03125l0.406189,-5.09375l0,-0.03125l0.156219,-2.09375zm-124.687408,10.40625l5.281189,0.5625l-0.125,1.15625l0,0.03125l0,0.03125l-0.5,4.125l0,0.03125l-0.531189,4.1875l-0.031311,0.03125l-0.156281,1.0625l-5.25,-0.78125l0.156281,-1l0,-0.03125l0.5625,-4.125l0,-0.03125l0.468811,-4.0625l0,-0.0625l0.125,-1.125zm123.312378,5.40625l5.312622,0.53125l-0.218811,1.9375l0,0.03125l-0.593811,5.375l0,0.03125l-0.406189,3.25l-5.249969,-0.65625l0.374969,-3.21875l0,-0.03125l0.593811,-5.3125l0,-0.03125l0.187378,-1.90625zm-125.406189,10.25l5.25,0.84375l-0.343811,2.1875l0,0.03125l-0.75,4.28125l0,0.03125l-0.75,4l-5.218689,-0.96875l0.718689,-3.96875l0,-0.03125l0.75,-4.21875l0,-0.03125l0.343811,-2.15625zm123.5625,5.5l5.281311,0.6875l-0.312592,2.46875l-0.031219,0l-0.781189,5.625l-0.375,2.5l-5.25,-0.8125l0.375,-2.4375l0,-0.03125l0.781219,-5.5625l0,-0.03125l0.312469,-2.40625zm-126.406311,10.0625l5.187622,1.09375l-0.843811,3.9375l0,0.03125l-1.031189,4.46875l0,0.03125l-0.468811,1.96875l-5.1875,-1.21875l0.468689,-1.9375l0.031311,-0.0625l1,-4.375l0,-0.03125l0.843689,-3.90625zm124.093842,5.625l5.249969,0.84375l-0.593811,3.71875l0,0.03125l-1,5.84375l-0.031189,0.03125l-0.156189,0.90625l-5.218811,-0.9375l0.156189,-0.90625l0,-0.03125l1,-5.78125l0,-0.03125l0.593842,-3.6875zm-127.687531,9.8125l5.156311,1.3125l-0.5,1.9375l0,0.03125l-1.25,4.59375l0,0.03125l-1.062622,3.71875l-5.093689,-1.4375l1.031311,-3.6875l0,-0.03125l1.218689,-4.53125l0,-0.03125l0.5,-1.90625zm124.968719,5.8125l5.218781,1.03125l-1.093811,5.75l0,0.03125l-0.968689,4.65625l-5.1875,-1.0625l0.9375,-4.625l0,-0.03125l1.093719,-5.75zm-3.125031,15.59375l5.187622,1.09375l-0.5,2.40625l-1.406311,6.28125l-0.406311,1.75l-5.156158,-1.1875l0.374969,-1.71875l0,-0.03125l1.406189,-6.21875l0,-0.03125l0.5,-2.34375zm-3.5,15.46875l5.187622,1.25l-1.437622,5.875l0,0.03125l-1.124969,4.4375l-5.156189,-1.28125l1.124969,-4.4375l1.406189,-5.875z"/>
  </g>
 </g>
</svg>